<?xml version="1.0" encoding="utf-8"?>
<!-- Generator: Adobe Illustrator 18.1.1, SVG Export Plug-In . SVG Version: 6.00 Build 0)  -->
<svg version="1.1" xmlns="http://www.w3.org/2000/svg" xmlns:xlink="http://www.w3.org/1999/xlink" x="0px" y="0px"
	 viewBox="0 0 286.6 85.9" enable-background="new 0 0 286.6 85.9" xml:space="preserve">
<g id="Instructions">
	<rect x="318.2" y="-56" width="360" height="594"/>
	<g>
		<path fill="#FFFFFF" d="M368.9,388.3h2.4c0.9,0,1.5,0.1,2,0.6c0.4,0.4,0.5,0.9,0.5,1.4c0,0.6-0.2,1-0.6,1.4
			c-0.4,0.4-0.9,0.6-2.2,0.6h-1.2v3.2h-1V388.3z M369.9,391.5h1.2c0.7,0,1.7,0,1.7-1.2c0-1.1-0.9-1.1-1.5-1.1h-1.4V391.5z"/>
		<path fill="#FFFFFF" d="M375,388.3h0.9v7.2H375V388.3z"/>
		<path fill="#FFFFFF" d="M378.3,393.2c0,1,0.4,1.8,1.4,1.8c0.6,0,1.1-0.3,1.2-1h0.9c0,0.2-0.1,0.7-0.4,1.1
			c-0.2,0.2-0.7,0.7-1.7,0.7c-1.6,0-2.3-1-2.3-2.6c0-1,0.2-1.8,1-2.4c0.5-0.3,1.1-0.4,1.4-0.4c2.2,0,2.2,2,2.2,2.8H378.3z
			 M381,392.5c0-0.5-0.1-1.5-1.2-1.5c-0.6,0-1.3,0.4-1.4,1.5H381z"/>
		<path fill="#FFFFFF" d="M386.4,395.5c-0.1-0.2-0.1-0.5-0.1-0.8c-0.4,0.8-1.1,0.9-1.5,0.9c-1.1,0-1.8-0.7-1.8-1.5
			c0-0.4,0.1-1,0.9-1.5c0.5-0.3,1.3-0.3,1.7-0.3c0.2,0,0.4,0,0.7,0c0-0.6,0-0.9-0.2-1.1c-0.2-0.2-0.6-0.3-0.9-0.3
			c-0.9,0-1,0.6-1,0.8h-0.9c0-0.3,0.1-0.6,0.4-1c0.4-0.4,1.1-0.5,1.6-0.5c0.7,0,1.5,0.2,1.8,0.7c0.2,0.3,0.2,0.5,0.2,0.8l0,2.4
			c0,0.1,0,0.8,0.1,1.3H386.4z M385.7,393c-0.4,0-1.8,0-1.8,1c0,0.3,0.2,0.9,1,0.9c0.5,0,0.8-0.2,1.1-0.5c0.2-0.3,0.2-0.6,0.2-1.3
			C386.1,393.1,386,393,385.7,393z"/>
		<path fill="#FFFFFF" d="M389.4,394c0,0.4,0.2,0.9,1.1,0.9c0.4,0,0.7-0.1,0.9-0.3c0.1-0.1,0.2-0.3,0.2-0.5c0-0.5-0.3-0.6-1.1-0.8
			c-1-0.2-1.9-0.4-1.9-1.5c0-0.9,0.8-1.5,2-1.5c0.6,0,1.5,0.2,1.8,0.8c0.1,0.3,0.1,0.5,0.1,0.7h-1c0-0.8-0.6-0.8-1-0.8
			c-0.1,0-1,0-1,0.7c0,0.5,0.4,0.6,0.7,0.6c1.4,0.3,1.7,0.4,2,0.7c0.3,0.3,0.4,0.6,0.4,0.9c0,0.6-0.3,1-0.7,1.3
			c-0.4,0.3-1,0.3-1.5,0.3c-1,0-2-0.4-2-1.6H389.4z"/>
		<path fill="#FFFFFF" d="M394.5,393.2c0,1,0.4,1.8,1.4,1.8c0.6,0,1.1-0.3,1.2-1h0.9c0,0.2-0.1,0.7-0.4,1.1
			c-0.2,0.2-0.7,0.7-1.7,0.7c-1.6,0-2.3-1-2.3-2.6c0-1,0.2-1.8,1-2.4c0.5-0.3,1.1-0.4,1.4-0.4c2.2,0,2.2,2,2.2,2.8H394.5z
			 M397.1,392.5c0-0.5-0.1-1.5-1.2-1.5c-0.6,0-1.3,0.4-1.4,1.5H397.1z"/>
		<path fill="#FFFFFF" d="M402.3,391.5c0-0.3,0-0.7,0-1h0.9l0,1c0.2-0.7,0.8-0.9,1.2-1c0.3,0,0.5,0,0.7,0v0.9c0,0-0.1,0-0.2,0
			c-0.1,0-0.2,0-0.3,0c-1.1,0-1.4,0.7-1.4,1.5v2.7h-0.9V391.5z"/>
		<path fill="#FFFFFF" d="M406.7,393.2c0,1,0.4,1.8,1.4,1.8c0.6,0,1.1-0.3,1.2-1h0.9c0,0.2-0.1,0.7-0.4,1.1
			c-0.2,0.2-0.7,0.7-1.7,0.7c-1.6,0-2.3-1-2.3-2.6c0-1,0.2-1.8,1-2.4c0.5-0.3,1.1-0.4,1.4-0.4c2.2,0,2.2,2,2.2,2.8H406.7z
			 M409.3,392.5c0-0.5-0.1-1.5-1.2-1.5c-0.6,0-1.3,0.4-1.4,1.5H409.3z"/>
		<path fill="#FFFFFF" d="M414.2,389c-0.2,0-0.4,0-0.5,0c-0.8,0-0.8,0.4-0.8,0.7v0.8h1.2v0.7h-1.2v4.3h-0.9v-4.3h-1v-0.7h1v-0.6
			c0-0.7,0-0.9,0.2-1.2c0.2-0.3,0.6-0.5,1.3-0.5c0.3,0,0.6,0,0.8,0.1V389z"/>
		<path fill="#FFFFFF" d="M415.6,393.2c0,1,0.4,1.8,1.4,1.8c0.6,0,1.1-0.3,1.2-1h0.9c0,0.2-0.1,0.7-0.4,1.1
			c-0.2,0.2-0.7,0.7-1.7,0.7c-1.6,0-2.3-1-2.3-2.6c0-1,0.2-1.8,1-2.4c0.5-0.3,1.1-0.4,1.4-0.4c2.2,0,2.2,2,2.2,2.8H415.6z
			 M418.2,392.5c0-0.5-0.1-1.5-1.2-1.5c-0.6,0-1.3,0.4-1.4,1.5H418.2z"/>
		<path fill="#FFFFFF" d="M420.6,391.5c0-0.3,0-0.7,0-1h0.9l0,1c0.2-0.7,0.8-0.9,1.2-1c0.3,0,0.5,0,0.7,0v0.9c0,0-0.1,0-0.2,0
			c-0.1,0-0.2,0-0.3,0c-1.1,0-1.4,0.7-1.4,1.5v2.7h-0.9V391.5z"/>
		<path fill="#FFFFFF" d="M426.5,390.5h0.9v-1l0.9-0.3v1.3h1.1v0.7h-1.1v3c0,0.2,0,0.7,0.7,0.7c0.2,0,0.4,0,0.4-0.1v0.7
			c-0.2,0-0.4,0.1-0.8,0.1c-0.9,0-1.3-0.2-1.3-1.1v-3.3h-0.9V390.5z"/>
		<path fill="#FFFFFF" d="M432.7,390.4c2,0,2.5,1.6,2.5,2.6c0,1.5-0.8,2.7-2.5,2.7c-1.7,0-2.5-1.2-2.5-2.6
			C430.2,391.8,430.8,390.4,432.7,390.4z M432.7,395c0.7,0,1.5-0.5,1.5-2c0-1.2-0.6-1.9-1.5-1.9c-0.6,0-1.6,0.4-1.6,1.9
			C431.2,394,431.6,395,432.7,395z"/>
		<path fill="#FFFFFF" d="M438.7,390.5h0.9v-1l0.9-0.3v1.3h1.1v0.7h-1.1v3c0,0.2,0,0.7,0.7,0.7c0.2,0,0.4,0,0.4-0.1v0.7
			c-0.2,0-0.4,0.1-0.8,0.1c-0.9,0-1.3-0.2-1.3-1.1v-3.3h-0.9V390.5z"/>
		<path fill="#FFFFFF" d="M442.8,388.3h0.9v2.9c0.3-0.5,0.9-0.8,1.6-0.8c0.5,0,1.3,0.2,1.6,0.8c0.1,0.2,0.2,0.4,0.2,1.2v3.1h-1v-3
			c0-0.4,0-1.4-1.1-1.4c-0.7,0-1,0.4-1.2,0.7c-0.2,0.3-0.2,0.8-0.2,1.1v2.7h-0.9V388.3z"/>
		<path fill="#FFFFFF" d="M449.5,393.2c0,1,0.4,1.8,1.4,1.8c0.6,0,1.1-0.3,1.2-1h0.9c0,0.2-0.1,0.7-0.4,1.1
			c-0.2,0.2-0.7,0.7-1.7,0.7c-1.6,0-2.3-1-2.3-2.6c0-1,0.2-1.8,1-2.4c0.5-0.3,1.1-0.4,1.4-0.4c2.2,0,2.2,2,2.2,2.8H449.5z
			 M452.1,392.5c0-0.5-0.1-1.5-1.2-1.5c-0.6,0-1.3,0.4-1.4,1.5H452.1z"/>
		<path fill="#FFFFFF" d="M458.2,391.2c0.1-0.2,0.5-0.9,1.6-0.9c0.5,0,1.1,0.1,1.6,0.6c0.2,0.3,0.6,0.8,0.6,1.9c0,1-0.2,1.5-0.5,1.8
			c-0.4,0.6-1.1,0.9-1.8,0.9c-0.2,0-0.7,0-1.1-0.3c-0.3-0.2-0.4-0.4-0.5-0.5l0,0.8h-0.9l0-0.9v-6.3h0.9V391.2z M459.6,391
			c-1.4,0-1.4,1.7-1.4,2c0,0.3,0,1.9,1.4,1.9c1.2,0,1.4-1.1,1.4-1.9C461,392.5,460.9,391,459.6,391z"/>
		<path fill="#FFFFFF" d="M463.4,391.5c0-0.3,0-0.7,0-1h0.9l0,1c0.2-0.7,0.8-0.9,1.2-1c0.3,0,0.5,0,0.7,0v0.9c0,0-0.1,0-0.2,0
			c-0.1,0-0.2,0-0.3,0c-1.1,0-1.4,0.7-1.4,1.5v2.7h-0.9V391.5z"/>
		<path fill="#FFFFFF" d="M470.3,395.5c-0.1-0.2-0.1-0.5-0.1-0.8c-0.4,0.8-1.1,0.9-1.5,0.9c-1.1,0-1.8-0.7-1.8-1.5
			c0-0.4,0.1-1,0.9-1.5c0.5-0.3,1.3-0.3,1.7-0.3c0.2,0,0.4,0,0.7,0c0-0.6,0-0.9-0.2-1.1c-0.2-0.2-0.6-0.3-0.9-0.3
			c-0.9,0-1,0.6-1,0.8h-0.9c0-0.3,0.1-0.6,0.4-1c0.4-0.4,1.1-0.5,1.6-0.5c0.7,0,1.5,0.2,1.8,0.7c0.2,0.3,0.2,0.5,0.2,0.8l0,2.4
			c0,0.1,0,0.8,0.1,1.3H470.3z M469.6,393c-0.4,0-1.8,0-1.8,1c0,0.3,0.2,0.9,1,0.9c0.5,0,0.8-0.2,1.1-0.5c0.2-0.3,0.2-0.6,0.2-1.3
			C470,393.1,469.9,393,469.6,393z"/>
		<path fill="#FFFFFF" d="M472.8,391.1l0-0.6h0.9l0,0.8c0.1-0.2,0.5-0.9,1.6-0.9c0.5,0,1.8,0.2,1.8,1.7v3.4h-1v-3.2
			c0-0.3,0-0.6-0.3-0.9c-0.2-0.2-0.6-0.3-0.9-0.3c-0.7,0-1.3,0.5-1.3,1.5v2.9h-0.9V391.1z"/>
		<path fill="#FFFFFF" d="M482.4,388.3h0.9v6.4c0,0.1,0,0.5,0,0.8h-0.9l0-0.8c-0.1,0.1-0.2,0.4-0.5,0.5c-0.4,0.3-0.9,0.4-1.2,0.4
			c-0.7,0-2.2-0.3-2.2-2.5c0-1.9,1.1-2.7,2.3-2.7c1.1,0,1.4,0.6,1.6,0.8V388.3z M482,391.5c-0.2-0.3-0.6-0.5-1.1-0.5
			c-1.4,0-1.4,1.7-1.4,2c0,0.9,0.2,1.9,1.4,1.9c1.5,0,1.5-1.6,1.5-2C482.4,392.2,482.2,391.8,482,391.5z"/>
		<path fill="#FFFFFF" d="M488.7,395.9c0,0.6,0.3,1,1.2,1c1.3,0,1.3-0.9,1.3-2.3c-0.4,0.8-1.3,0.8-1.6,0.8c-0.5,0-1.1-0.1-1.5-0.6
			c-0.4-0.5-0.6-1.2-0.6-1.8c0-1.7,1-2.5,2.2-2.5c1,0,1.4,0.5,1.6,0.8l0-0.7h0.9l0,0.9l0,3.1c0,1.2,0,1.7-0.2,2.1
			c-0.4,0.8-1.4,0.9-2.1,0.9c-2,0-2.1-0.9-2.1-1.6H488.7z M490.9,394.2c0.2-0.3,0.3-0.5,0.3-1.4c0-0.6-0.1-1-0.4-1.2
			c-0.2-0.3-0.6-0.4-1.1-0.4c-1.2,0-1.3,1.2-1.3,1.8c0,0.8,0.2,1.8,1.4,1.8C490.3,394.7,490.7,394.5,490.9,394.2z"/>
		<path fill="#FFFFFF" d="M494.8,390.5v3.2c0,0.5,0.1,1.1,1.1,1.1c0.5,0,0.9-0.2,1.2-0.6c0.2-0.3,0.2-0.7,0.2-0.9v-2.8h1v4.1
			c0,0.1,0,0.7,0,0.9h-1l0-0.9c-0.2,0.3-0.5,0.9-1.6,0.9c-1.2,0-1.8-0.7-1.8-1.7v-3.4H494.8z"/>
		<path fill="#FFFFFF" d="M499.9,388.3h1.1v1h-1.1V388.3z M500,390.5h0.9v5H500V390.5z"/>
		<path fill="#FFFFFF" d="M506.3,388.3h0.9v6.4c0,0.1,0,0.5,0,0.8h-0.9l0-0.8c-0.1,0.1-0.2,0.4-0.5,0.5c-0.4,0.3-0.9,0.4-1.2,0.4
			c-0.7,0-2.2-0.3-2.2-2.5c0-1.9,1.1-2.7,2.3-2.7c1.1,0,1.4,0.6,1.6,0.8V388.3z M505.9,391.5c-0.2-0.3-0.6-0.5-1.1-0.5
			c-1.4,0-1.4,1.7-1.4,2c0,0.9,0.2,1.9,1.4,1.9c1.5,0,1.5-1.6,1.5-2C506.3,392.2,506.1,391.8,505.9,391.5z"/>
		<path fill="#FFFFFF" d="M509.5,393.2c0,1,0.4,1.8,1.4,1.8c0.6,0,1.1-0.3,1.2-1h0.9c0,0.2-0.1,0.7-0.4,1.1
			c-0.2,0.2-0.7,0.7-1.7,0.7c-1.6,0-2.3-1-2.3-2.6c0-1,0.2-1.8,1-2.4c0.5-0.3,1.1-0.4,1.4-0.4c2.2,0,2.2,2,2.2,2.8H509.5z
			 M512.1,392.5c0-0.5-0.1-1.5-1.2-1.5c-0.6,0-1.3,0.4-1.4,1.5H512.1z"/>
		<path fill="#FFFFFF" d="M514.5,388.3h0.9v7.2h-0.9V388.3z"/>
		<path fill="#FFFFFF" d="M517.2,388.3h1.1v1h-1.1V388.3z M517.3,390.5h0.9v5h-0.9V390.5z"/>
		<path fill="#FFFFFF" d="M520.1,391.1l0-0.6h0.9l0,0.8c0.1-0.2,0.5-0.9,1.6-0.9c0.5,0,1.8,0.2,1.8,1.7v3.4h-1v-3.2
			c0-0.3,0-0.6-0.3-0.9c-0.2-0.2-0.6-0.3-0.9-0.3c-0.7,0-1.3,0.5-1.3,1.5v2.9h-0.9V391.1z"/>
		<path fill="#FFFFFF" d="M526.7,393.2c0,1,0.4,1.8,1.4,1.8c0.6,0,1.1-0.3,1.2-1h0.9c0,0.2-0.1,0.7-0.4,1.1
			c-0.2,0.2-0.7,0.7-1.7,0.7c-1.6,0-2.3-1-2.3-2.6c0-1,0.2-1.8,1-2.4c0.5-0.3,1.1-0.4,1.4-0.4c2.2,0,2.2,2,2.2,2.8H526.7z
			 M529.4,392.5c0-0.5-0.1-1.5-1.2-1.5c-0.6,0-1.3,0.4-1.4,1.5H529.4z"/>
		<path fill="#FFFFFF" d="M532.2,394c0,0.4,0.2,0.9,1.1,0.9c0.4,0,0.7-0.1,0.9-0.3c0.1-0.1,0.2-0.3,0.2-0.5c0-0.5-0.3-0.6-1.1-0.8
			c-1-0.2-1.9-0.4-1.9-1.5c0-0.9,0.8-1.5,2-1.5c0.6,0,1.5,0.2,1.8,0.8c0.1,0.3,0.1,0.5,0.1,0.7h-1c0-0.8-0.6-0.8-1-0.8
			c-0.1,0-1,0-1,0.7c0,0.5,0.4,0.6,0.7,0.6c1.4,0.3,1.7,0.4,2,0.7c0.3,0.3,0.4,0.6,0.4,0.9c0,0.6-0.3,1-0.7,1.3
			c-0.4,0.3-1,0.3-1.5,0.3c-1,0-2-0.4-2-1.6H532.2z"/>
		<path fill="#FFFFFF" d="M368.1,402.5h0.9v-1l0.9-0.3v1.3h1.1v0.7h-1.1v3c0,0.2,0,0.7,0.7,0.7c0.2,0,0.4,0,0.4-0.1v0.7
			c-0.2,0-0.4,0.1-0.8,0.1c-0.9,0-1.3-0.2-1.3-1.1v-3.3h-0.9V402.5z"/>
		<path fill="#FFFFFF" d="M372.2,400.3h0.9v2.9c0.3-0.5,0.9-0.8,1.6-0.8c0.5,0,1.3,0.2,1.6,0.8c0.1,0.2,0.2,0.4,0.2,1.2v3.1h-1v-3
			c0-0.4,0-1.4-1.1-1.4c-0.7,0-1,0.4-1.2,0.7c-0.2,0.3-0.2,0.8-0.2,1.1v2.7h-0.9V400.3z"/>
		<path fill="#FFFFFF" d="M381.4,407.5c-0.1-0.2-0.1-0.5-0.1-0.8c-0.4,0.8-1.1,0.9-1.5,0.9c-1.1,0-1.8-0.7-1.8-1.5
			c0-0.4,0.1-1,0.9-1.5c0.5-0.3,1.3-0.3,1.7-0.3c0.2,0,0.4,0,0.7,0c0-0.6,0-0.9-0.2-1.1c-0.2-0.2-0.6-0.3-0.9-0.3
			c-0.9,0-1,0.6-1,0.8h-0.9c0-0.3,0.1-0.6,0.4-1c0.4-0.4,1.1-0.5,1.6-0.5c0.7,0,1.5,0.2,1.8,0.7c0.2,0.3,0.2,0.5,0.2,0.8l0,2.4
			c0,0.1,0,0.8,0.1,1.3H381.4z M380.7,405c-0.4,0-1.8,0-1.8,1c0,0.3,0.2,0.9,1,0.9c0.5,0,0.8-0.2,1.1-0.5c0.2-0.3,0.2-0.6,0.2-1.3
			C381.1,405.1,381,405,380.7,405z"/>
		<path fill="#FFFFFF" d="M383.1,402.5h0.9v-1l0.9-0.3v1.3h1.1v0.7h-1.1v3c0,0.2,0,0.7,0.7,0.7c0.2,0,0.4,0,0.4-0.1v0.7
			c-0.2,0-0.4,0.1-0.8,0.1c-0.9,0-1.3-0.2-1.3-1.1v-3.3h-0.9V402.5z"/>
		<path fill="#FFFFFF" d="M393,407.5c-0.1-0.2-0.1-0.5-0.1-0.8c-0.4,0.8-1.1,0.9-1.5,0.9c-1.1,0-1.8-0.7-1.8-1.5
			c0-0.4,0.1-1,0.9-1.5c0.5-0.3,1.3-0.3,1.7-0.3c0.2,0,0.4,0,0.7,0c0-0.6,0-0.9-0.2-1.1c-0.2-0.2-0.6-0.3-0.9-0.3
			c-0.9,0-1,0.6-1,0.8h-0.9c0-0.3,0.1-0.6,0.4-1c0.4-0.4,1.1-0.5,1.6-0.5c0.7,0,1.5,0.2,1.8,0.7c0.2,0.3,0.2,0.5,0.2,0.8l0,2.4
			c0,0.1,0,0.8,0.1,1.3H393z M392.4,405c-0.4,0-1.8,0-1.8,1c0,0.3,0.2,0.9,1,0.9c0.5,0,0.8-0.2,1.1-0.5c0.2-0.3,0.2-0.6,0.2-1.3
			C392.8,405.1,392.6,405,392.4,405z"/>
		<path fill="#FFFFFF" d="M398.4,404.1c0-0.2-0.1-1-1-1c-1.3,0-1.3,1.5-1.3,1.9c0,1,0.2,2,1.2,2c0.8,0,1.1-0.6,1.1-1.1h0.9
			c-0.1,1-0.8,1.8-2,1.8c-0.3,0-1.1-0.1-1.6-0.6c-0.3-0.4-0.6-0.9-0.6-1.9c0-2.1,1.3-2.7,2.3-2.7c0.3,0,1.1,0.1,1.5,0.6
			c0.4,0.4,0.4,0.8,0.4,1.1H398.4z"/>
		<path fill="#FFFFFF" d="M403.4,404.1c0-0.2-0.1-1-1-1c-1.3,0-1.3,1.5-1.3,1.9c0,1,0.2,2,1.2,2c0.8,0,1.1-0.6,1.1-1.1h0.9
			c-0.1,1-0.8,1.8-2,1.8c-0.3,0-1.1-0.1-1.6-0.6c-0.3-0.4-0.6-0.9-0.6-1.9c0-2.1,1.3-2.7,2.3-2.7c0.3,0,1.1,0.1,1.5,0.6
			c0.4,0.4,0.4,0.8,0.4,1.1H403.4z"/>
		<path fill="#FFFFFF" d="M407.7,402.4c2,0,2.5,1.6,2.5,2.6c0,1.5-0.8,2.7-2.5,2.7c-1.7,0-2.5-1.2-2.5-2.6
			C405.2,403.8,405.8,402.4,407.7,402.4z M407.7,407c0.7,0,1.5-0.5,1.5-2c0-1.2-0.6-1.9-1.5-1.9c-0.6,0-1.6,0.4-1.6,1.9
			C406.2,406,406.6,407,407.7,407z"/>
		<path fill="#FFFFFF" d="M411.6,403.2l0-0.7h0.9v0.7c0.5-0.8,1.2-0.9,1.6-0.9c1.1,0,1.5,0.6,1.6,0.9c0.2-0.3,0.6-0.9,1.7-0.9
			c0.7,0,1.8,0.3,1.8,1.8v3.4h-1v-3.2c0-0.4-0.1-0.6-0.2-0.8c-0.2-0.2-0.5-0.4-1-0.4c-0.6,0-0.9,0.3-1.1,0.5
			c-0.2,0.3-0.2,0.9-0.2,1.1v2.8h-1v-3.3c0-0.6-0.4-1.1-1.1-1.1c-0.6,0-1,0.4-1.1,0.5c-0.2,0.3-0.2,0.7-0.2,1v2.8h-1V403.2z"/>
		<path fill="#FFFFFF" d="M421.1,403.3c0-0.2,0-0.3,0-0.8h0.9l0,0.8c0.5-0.8,1.3-0.9,1.7-0.9c1.1,0,2.1,0.7,2.1,2.6
			c0,1.9-1.1,2.7-2.3,2.7c-0.7,0-1.3-0.3-1.5-0.8v2.5h-0.9V403.3z M423.4,407c0.2,0,0.7-0.1,1.1-0.5c0.4-0.5,0.4-1.2,0.4-1.6
			c0-0.9-0.3-1.8-1.4-1.8c-1.5,0-1.5,1.6-1.5,2C422,405.8,422.1,407,423.4,407z"/>
		<path fill="#FFFFFF" d="M430.3,407.5c-0.1-0.2-0.1-0.5-0.1-0.8c-0.4,0.8-1.1,0.9-1.5,0.9c-1.1,0-1.8-0.7-1.8-1.5
			c0-0.4,0.1-1,0.9-1.5c0.5-0.3,1.3-0.3,1.7-0.3c0.2,0,0.4,0,0.7,0c0-0.6,0-0.9-0.2-1.1c-0.2-0.2-0.6-0.3-0.9-0.3
			c-0.9,0-1,0.6-1,0.8h-0.9c0-0.3,0.1-0.6,0.4-1c0.4-0.4,1.1-0.5,1.6-0.5c0.7,0,1.5,0.2,1.8,0.7c0.2,0.3,0.2,0.5,0.2,0.8l0,2.4
			c0,0.1,0,0.8,0.1,1.3H430.3z M429.6,405c-0.4,0-1.8,0-1.8,1c0,0.3,0.2,0.9,1,0.9c0.5,0,0.8-0.2,1.1-0.5c0.2-0.3,0.2-0.6,0.2-1.3
			C430,405.1,429.8,405,429.6,405z"/>
		<path fill="#FFFFFF" d="M432.8,403.1l0-0.6h0.9l0,0.8c0.1-0.2,0.5-0.9,1.6-0.9c0.5,0,1.8,0.2,1.8,1.7v3.4h-1v-3.2
			c0-0.3,0-0.6-0.3-0.9c-0.2-0.2-0.6-0.3-0.9-0.3c-0.7,0-1.3,0.5-1.3,1.5v2.9h-0.9V403.1z"/>
		<path fill="#FFFFFF" d="M440.9,407.5l-0.7,1.9h-1l0.8-1.9l-2.1-5h1.1l1.6,4l1.6-4h1L440.9,407.5z"/>
		<path fill="#FFFFFF" d="M446.2,402.5h0.9v-1l0.9-0.3v1.3h1.1v0.7h-1.1v3c0,0.2,0,0.7,0.7,0.7c0.2,0,0.4,0,0.4-0.1v0.7
			c-0.2,0-0.4,0.1-0.8,0.1c-0.9,0-1.3-0.2-1.3-1.1v-3.3h-0.9V402.5z"/>
		<path fill="#FFFFFF" d="M450.3,400.3h0.9v2.9c0.3-0.5,0.9-0.8,1.6-0.8c0.5,0,1.3,0.2,1.6,0.8c0.1,0.2,0.2,0.4,0.2,1.2v3.1h-1v-3
			c0-0.4,0-1.4-1.1-1.4c-0.7,0-1,0.4-1.2,0.7c-0.2,0.3-0.2,0.8-0.2,1.1v2.7h-0.9V400.3z"/>
		<path fill="#FFFFFF" d="M456.4,400.3h1.1v1h-1.1V400.3z M456.5,402.5h0.9v5h-0.9V402.5z"/>
		<path fill="#FFFFFF" d="M459.8,406c0,0.4,0.2,0.9,1.1,0.9c0.4,0,0.7-0.1,0.9-0.3c0.1-0.1,0.2-0.3,0.2-0.5c0-0.5-0.3-0.6-1.1-0.8
			c-1-0.2-1.9-0.4-1.9-1.5c0-0.9,0.8-1.5,2-1.5c0.6,0,1.5,0.2,1.8,0.8c0.1,0.3,0.1,0.5,0.1,0.7h-1c0-0.8-0.6-0.8-1-0.8
			c-0.1,0-1,0-1,0.7c0,0.5,0.4,0.6,0.7,0.6c1.4,0.3,1.7,0.4,2,0.7c0.3,0.3,0.4,0.6,0.4,0.9c0,0.6-0.3,1-0.7,1.3
			c-0.4,0.3-1,0.3-1.5,0.3c-1,0-2-0.4-2-1.6H459.8z"/>
		<path fill="#FFFFFF" d="M469.5,401c-0.2,0-0.4,0-0.5,0c-0.8,0-0.8,0.4-0.8,0.7v0.8h1.2v0.7h-1.2v4.3h-0.9v-4.3h-1v-0.7h1v-0.6
			c0-0.7,0-0.9,0.2-1.2c0.2-0.3,0.6-0.5,1.3-0.5c0.3,0,0.6,0,0.8,0.1V401z M470.2,400.3h1.1v1h-1.1V400.3z M470.3,407.5v-5h0.9v5
			H470.3z"/>
		<path fill="#FFFFFF" d="M473.1,400.3h0.9v7.2h-0.9V400.3z"/>
		<path fill="#FFFFFF" d="M476.5,405.2c0,1,0.4,1.8,1.4,1.8c0.6,0,1.1-0.3,1.2-1h0.9c0,0.2-0.1,0.7-0.4,1.1
			c-0.2,0.2-0.7,0.7-1.7,0.7c-1.6,0-2.3-1-2.3-2.6c0-1,0.2-1.8,1-2.4c0.5-0.3,1.1-0.4,1.4-0.4c2.2,0,2.2,2,2.2,2.8H476.5z
			 M479.1,404.5c0-0.5-0.1-1.5-1.2-1.5c-0.6,0-1.3,0.4-1.4,1.5H479.1z"/>
		<path fill="#FFFFFF" d="M486.8,401c-0.2,0-0.4,0-0.5,0c-0.8,0-0.8,0.4-0.8,0.7v0.8h1.2v0.7h-1.2v4.3h-0.9v-4.3h-1v-0.7h1v-0.6
			c0-0.7,0-0.9,0.2-1.2c0.2-0.3,0.6-0.5,1.3-0.5c0.3,0,0.6,0,0.8,0.1V401z"/>
		<path fill="#FFFFFF" d="M489.8,402.4c2,0,2.5,1.6,2.5,2.6c0,1.5-0.8,2.7-2.5,2.7c-1.7,0-2.5-1.2-2.5-2.6
			C487.2,403.8,487.8,402.4,489.8,402.4z M489.7,407c0.7,0,1.5-0.5,1.5-2c0-1.2-0.6-1.9-1.5-1.9c-0.6,0-1.6,0.4-1.6,1.9
			C488.2,406,488.6,407,489.7,407z"/>
		<path fill="#FFFFFF" d="M493.7,403.5c0-0.3,0-0.7,0-1h0.9l0,1c0.2-0.7,0.8-0.9,1.2-1c0.3,0,0.5,0,0.7,0v0.9c0,0-0.1,0-0.2,0
			c-0.1,0-0.2,0-0.3,0c-1.1,0-1.4,0.7-1.4,1.5v2.7h-0.9V403.5z"/>
		<path fill="#FFFFFF" d="M500.3,400.3h1.1v1h-1.1V400.3z M500.4,402.5h0.9v5h-0.9V402.5z"/>
		<path fill="#FFFFFF" d="M503.2,403.1l0-0.6h0.9l0,0.8c0.1-0.2,0.5-0.9,1.6-0.9c0.5,0,1.8,0.2,1.8,1.7v3.4h-1v-3.2
			c0-0.3,0-0.6-0.3-0.9c-0.2-0.2-0.6-0.3-0.9-0.3c-0.7,0-1.3,0.5-1.3,1.5v2.9h-0.9V403.1z"/>
		<path fill="#FFFFFF" d="M511.8,401c-0.2,0-0.4,0-0.5,0c-0.8,0-0.8,0.4-0.8,0.7v0.8h1.2v0.7h-1.2v4.3h-0.9v-4.3h-1v-0.7h1v-0.6
			c0-0.7,0-0.9,0.2-1.2c0.2-0.3,0.6-0.5,1.3-0.5c0.3,0,0.6,0,0.8,0.1V401z"/>
		<path fill="#FFFFFF" d="M514.8,402.4c2,0,2.5,1.6,2.5,2.6c0,1.5-0.8,2.7-2.5,2.7c-1.7,0-2.5-1.2-2.5-2.6
			C512.2,403.8,512.8,402.4,514.8,402.4z M514.7,407c0.7,0,1.5-0.5,1.5-2c0-1.2-0.6-1.9-1.5-1.9c-0.6,0-1.6,0.4-1.6,1.9
			C513.2,406,513.6,407,514.7,407z"/>
		<path fill="#FFFFFF" d="M518.7,403.5c0-0.3,0-0.7,0-1h0.9l0,1c0.2-0.7,0.8-0.9,1.2-1c0.3,0,0.5,0,0.7,0v0.9c0,0-0.1,0-0.2,0
			c-0.1,0-0.2,0-0.3,0c-1.1,0-1.4,0.7-1.4,1.5v2.7h-0.9V403.5z"/>
		<path fill="#FFFFFF" d="M522.6,403.2l0-0.7h0.9v0.7c0.5-0.8,1.2-0.9,1.6-0.9c1.1,0,1.5,0.6,1.6,0.9c0.2-0.3,0.6-0.9,1.7-0.9
			c0.7,0,1.8,0.3,1.8,1.8v3.4h-1v-3.2c0-0.4-0.1-0.6-0.2-0.8c-0.2-0.2-0.5-0.4-1-0.4c-0.6,0-0.9,0.3-1.1,0.5
			c-0.2,0.3-0.2,0.9-0.2,1.1v2.8h-1v-3.3c0-0.6-0.4-1.1-1.1-1.1c-0.6,0-1,0.4-1.1,0.5c-0.2,0.3-0.2,0.7-0.2,1v2.8h-1V403.2z"/>
		<path fill="#FFFFFF" d="M535.1,407.5c-0.1-0.2-0.1-0.5-0.1-0.8c-0.4,0.8-1.1,0.9-1.5,0.9c-1.1,0-1.8-0.7-1.8-1.5
			c0-0.4,0.1-1,0.9-1.5c0.5-0.3,1.3-0.3,1.7-0.3c0.2,0,0.4,0,0.7,0c0-0.6,0-0.9-0.2-1.1c-0.2-0.2-0.6-0.3-0.9-0.3
			c-0.9,0-1,0.6-1,0.8H532c0-0.3,0.1-0.6,0.4-1c0.4-0.4,1.1-0.5,1.6-0.5c0.7,0,1.5,0.2,1.8,0.7c0.2,0.3,0.2,0.5,0.2,0.8l0,2.4
			c0,0.1,0,0.8,0.1,1.3H535.1z M534.4,405c-0.4,0-1.8,0-1.8,1c0,0.3,0.2,0.9,1,0.9c0.5,0,0.8-0.2,1.1-0.5c0.2-0.3,0.2-0.6,0.2-1.3
			C534.8,405.1,534.7,405,534.4,405z"/>
		<path fill="#FFFFFF" d="M536.8,402.5h0.9v-1l0.9-0.3v1.3h1.1v0.7h-1.1v3c0,0.2,0,0.7,0.7,0.7c0.2,0,0.4,0,0.4-0.1v0.7
			c-0.2,0-0.4,0.1-0.8,0.1c-0.9,0-1.3-0.2-1.3-1.1v-3.3h-0.9V402.5z"/>
		<path fill="#FFFFFF" d="M540.8,400.3h1.1v1h-1.1V400.3z M540.9,402.5h0.9v5h-0.9V402.5z"/>
		<path fill="#FFFFFF" d="M545.9,402.4c2,0,2.5,1.6,2.5,2.6c0,1.5-0.8,2.7-2.5,2.7c-1.7,0-2.5-1.2-2.5-2.6
			C543.3,403.8,543.9,402.4,545.9,402.4z M545.8,407c0.7,0,1.5-0.5,1.5-2c0-1.2-0.6-1.9-1.5-1.9c-0.6,0-1.6,0.4-1.6,1.9
			C544.3,406,544.7,407,545.8,407z"/>
		<path fill="#FFFFFF" d="M549.8,403.1l0-0.6h0.9l0,0.8c0.1-0.2,0.5-0.9,1.6-0.9c0.5,0,1.8,0.2,1.8,1.7v3.4h-1v-3.2
			c0-0.3,0-0.6-0.3-0.9c-0.2-0.2-0.6-0.3-0.9-0.3c-0.7,0-1.3,0.5-1.3,1.5v2.9h-0.9V403.1z"/>
		<path fill="#FFFFFF" d="M371.1,414.4c2,0,2.5,1.6,2.5,2.6c0,1.5-0.8,2.7-2.5,2.7c-1.7,0-2.5-1.2-2.5-2.6
			C368.5,415.8,369.1,414.4,371.1,414.4z M371,419c0.7,0,1.5-0.5,1.5-2c0-1.2-0.6-1.9-1.5-1.9c-0.6,0-1.6,0.4-1.6,1.9
			C369.5,418,369.9,419,371,419z"/>
		<path fill="#FFFFFF" d="M375,415.1l0-0.6h0.9l0,0.8c0.1-0.2,0.5-0.9,1.6-0.9c0.5,0,1.8,0.2,1.8,1.7v3.4h-1v-3.2
			c0-0.3,0-0.6-0.3-0.9c-0.2-0.2-0.6-0.3-0.9-0.3c-0.7,0-1.3,0.5-1.3,1.5v2.9H375V415.1z"/>
		<path fill="#FFFFFF" d="M383.9,412.3h0.9v2.9c0.3-0.5,0.9-0.8,1.6-0.8c0.5,0,1.3,0.2,1.6,0.8c0.1,0.2,0.2,0.4,0.2,1.2v3.1h-1v-3
			c0-0.4,0-1.4-1.1-1.4c-0.7,0-1,0.4-1.2,0.7c-0.2,0.3-0.2,0.8-0.2,1.1v2.7h-0.9V412.3z"/>
		<path fill="#FFFFFF" d="M392.2,414.4c2,0,2.5,1.6,2.5,2.6c0,1.5-0.8,2.7-2.5,2.7c-1.7,0-2.5-1.2-2.5-2.6
			C389.6,415.8,390.2,414.4,392.2,414.4z M392.1,419c0.7,0,1.5-0.5,1.5-2c0-1.2-0.6-1.9-1.5-1.9c-0.6,0-1.6,0.4-1.6,1.9
			C390.6,418,391,419,392.1,419z"/>
		<path fill="#FFFFFF" d="M396.4,414.5l1.2,4l1.3-4h1.2l1.1,4l1.3-4h1l-1.8,5h-1.1l-1.2-4.1l-1.3,4.1H397l-1.7-5H396.4z"/>
		<path fill="#FFFFFF" d="M406.4,414.5h0.9v-1l0.9-0.3v1.3h1.1v0.7h-1.1v3c0,0.2,0,0.7,0.7,0.7c0.2,0,0.4,0,0.4-0.1v0.7
			c-0.2,0-0.4,0.1-0.8,0.1c-0.9,0-1.3-0.2-1.3-1.1v-3.3h-0.9V414.5z"/>
		<path fill="#FFFFFF" d="M412.7,414.4c2,0,2.5,1.6,2.5,2.6c0,1.5-0.8,2.7-2.5,2.7c-1.7,0-2.5-1.2-2.5-2.6
			C410.2,415.8,410.7,414.4,412.7,414.4z M412.7,419c0.7,0,1.5-0.5,1.5-2c0-1.2-0.6-1.9-1.5-1.9c-0.6,0-1.6,0.4-1.6,1.9
			C411.1,418,411.6,419,412.7,419z"/>
		<path fill="#FFFFFF" d="M420.3,414.5v3.2c0,0.5,0.1,1.1,1.1,1.1c0.5,0,0.9-0.2,1.2-0.6c0.2-0.3,0.2-0.7,0.2-0.9v-2.8h1v4.1
			c0,0.1,0,0.7,0,0.9h-1l0-0.9c-0.2,0.3-0.5,0.9-1.6,0.9c-1.2,0-1.8-0.7-1.8-1.7v-3.4H420.3z"/>
		<path fill="#FFFFFF" d="M426.1,418c0,0.4,0.2,0.9,1.1,0.9c0.4,0,0.7-0.1,0.9-0.3c0.1-0.1,0.2-0.3,0.2-0.5c0-0.5-0.3-0.6-1.1-0.8
			c-1-0.2-1.9-0.4-1.9-1.5c0-0.9,0.8-1.5,2-1.5c0.6,0,1.5,0.2,1.8,0.8c0.1,0.3,0.1,0.5,0.1,0.7h-1c0-0.8-0.6-0.8-1-0.8
			c-0.1,0-1,0-1,0.7c0,0.5,0.4,0.6,0.7,0.6c1.4,0.3,1.7,0.4,2,0.7c0.3,0.3,0.4,0.6,0.4,0.9c0,0.6-0.3,1-0.7,1.3
			c-0.4,0.3-1,0.3-1.5,0.3c-1,0-2-0.4-2-1.6H426.1z"/>
		<path fill="#FFFFFF" d="M431.1,417.2c0,1,0.4,1.8,1.4,1.8c0.6,0,1.1-0.3,1.2-1h0.9c0,0.2-0.1,0.7-0.4,1.1
			c-0.2,0.2-0.7,0.7-1.7,0.7c-1.6,0-2.3-1-2.3-2.6c0-1,0.2-1.8,1-2.4c0.5-0.3,1.1-0.4,1.4-0.4c2.2,0,2.2,2,2.2,2.8H431.1z
			 M433.8,416.5c0-0.5-0.1-1.5-1.2-1.5c-0.6,0-1.3,0.4-1.4,1.5H433.8z"/>
		<path fill="#FFFFFF" d="M438.1,414.5h0.9v-1l0.9-0.3v1.3h1.1v0.7h-1.1v3c0,0.2,0,0.7,0.7,0.7c0.2,0,0.4,0,0.4-0.1v0.7
			c-0.2,0-0.4,0.1-0.8,0.1c-0.9,0-1.3-0.2-1.3-1.1v-3.3h-0.9V414.5z"/>
		<path fill="#FFFFFF" d="M442.2,412.3h0.9v2.9c0.3-0.5,0.9-0.8,1.6-0.8c0.5,0,1.3,0.2,1.6,0.8c0.1,0.2,0.2,0.4,0.2,1.2v3.1h-1v-3
			c0-0.4,0-1.4-1.1-1.4c-0.7,0-1,0.4-1.2,0.7c-0.2,0.3-0.2,0.8-0.2,1.1v2.7h-0.9V412.3z"/>
		<path fill="#FFFFFF" d="M448.9,417.2c0,1,0.4,1.8,1.4,1.8c0.6,0,1.1-0.3,1.2-1h0.9c0,0.2-0.1,0.7-0.4,1.1
			c-0.2,0.2-0.7,0.7-1.7,0.7c-1.6,0-2.3-1-2.3-2.6c0-1,0.2-1.8,1-2.4c0.5-0.3,1.1-0.4,1.4-0.4c2.2,0,2.2,2,2.2,2.8H448.9z
			 M451.5,416.5c0-0.5-0.1-1.5-1.2-1.5c-0.6,0-1.3,0.4-1.4,1.5H451.5z"/>
		<path fill="#FFFFFF" d="M458.4,412.3h1.1l2.9,7.2h-1.1l-0.8-1.9h-3.3l-0.8,1.9h-1L458.4,412.3z M457.5,416.8h2.7l-1.3-3.5
			L457.5,416.8z"/>
		<path fill="#FFFFFF" d="M463.4,415.1l0-0.6h0.9l0,0.8c0.1-0.2,0.5-0.9,1.6-0.9c0.5,0,1.8,0.2,1.8,1.7v3.4h-1v-3.2
			c0-0.3,0-0.6-0.3-0.9c-0.2-0.2-0.6-0.3-0.9-0.3c-0.7,0-1.3,0.5-1.3,1.5v2.9h-0.9V415.1z"/>
		<path fill="#FFFFFF" d="M469.4,412.2h0.9v4.3l1.9-2h1.2l-2.1,2.1l2.2,2.9h-1.2l-2-2.7v2.7h-0.9V412.2z"/>
		<path fill="#FFFFFF" d="M474.4,412.3h1.1v1h-1.1V412.3z M474.5,414.5h0.9v5h-0.9V414.5z"/>
		<path fill="#FFFFFF" d="M480.1,412.3h0.9v7.2h-0.9V412.3z"/>
		<path fill="#FFFFFF" d="M485,414.4c2,0,2.5,1.6,2.5,2.6c0,1.5-0.8,2.7-2.5,2.7c-1.7,0-2.5-1.2-2.5-2.6
			C482.5,415.8,483,414.4,485,414.4z M484.9,419c0.7,0,1.5-0.5,1.5-2c0-1.2-0.6-1.9-1.5-1.9c-0.6,0-1.6,0.4-1.6,1.9
			C483.4,418,483.9,419,484.9,419z"/>
		<path fill="#FFFFFF" d="M489.8,419.9c0,0.6,0.3,1,1.2,1c1.3,0,1.3-0.9,1.3-2.3c-0.4,0.8-1.3,0.8-1.6,0.8c-0.5,0-1.1-0.1-1.5-0.6
			c-0.4-0.5-0.6-1.2-0.6-1.8c0-1.7,1-2.5,2.2-2.5c1,0,1.4,0.5,1.6,0.8l0-0.7h0.9l0,0.9l0,3.1c0,1.2,0,1.7-0.2,2.1
			c-0.4,0.8-1.4,0.9-2.1,0.9c-2,0-2.1-0.9-2.1-1.6H489.8z M492,418.2c0.2-0.3,0.3-0.5,0.3-1.4c0-0.6-0.1-1-0.4-1.2
			c-0.2-0.3-0.6-0.4-1.1-0.4c-1.2,0-1.3,1.2-1.3,1.8c0,0.8,0.2,1.8,1.4,1.8C491.5,418.7,491.8,418.5,492,418.2z"/>
		<path fill="#FFFFFF" d="M497.2,414.4c2,0,2.5,1.6,2.5,2.6c0,1.5-0.8,2.7-2.5,2.7c-1.7,0-2.5-1.2-2.5-2.6
			C494.7,415.8,495.3,414.4,497.2,414.4z M497.2,419c0.7,0,1.5-0.5,1.5-2c0-1.2-0.6-1.9-1.5-1.9c-0.6,0-1.6,0.4-1.6,1.9
			C495.7,418,496.1,419,497.2,419z"/>
		<path fill="#FFFFFF" d="M501.1,418.3h1.1v1.2h-1.1V418.3z"/>
		<path fill="#FFFFFF" d="M370.7,437.7c-0.4,0.4-1.1,0.8-1.6,1v-1c0.6-0.3,1.3-0.8,1.7-1.1h0.9v6.9h-1V437.7z"/>
		<path fill="#FFFFFF" d="M380.1,436.3h2.6c0.9,0,1.4,0.1,1.8,0.5c0.3,0.3,0.5,0.7,0.5,1.3c0,1.2-0.9,1.5-1.2,1.6
			c0.4,0.1,1.4,0.4,1.4,1.8c0,1-0.6,1.5-0.9,1.6c-0.5,0.3-1.1,0.3-1.6,0.3h-2.6V436.3z M381,439.3h1.4c0.3,0,1.5,0,1.5-1.1
			c0-1.1-0.9-1.1-1.5-1.1H381V439.3z M381,442.7h1.7c0.8,0,1.4-0.4,1.4-1.2c0-0.7-0.5-1.2-1.4-1.2H381V442.7z"/>
		<path fill="#FFFFFF" d="M386.7,436.3h0.9v7.2h-0.9V436.3z"/>
		<path fill="#FFFFFF" d="M390.3,438.5v3.2c0,0.5,0.1,1.1,1.1,1.1c0.5,0,0.9-0.2,1.2-0.6c0.2-0.3,0.2-0.7,0.2-0.9v-2.8h1v4.1
			c0,0.1,0,0.7,0,0.9h-1l0-0.9c-0.2,0.3-0.5,0.9-1.6,0.9c-1.2,0-1.8-0.7-1.8-1.7v-3.4H390.3z"/>
		<path fill="#FFFFFF" d="M396.1,441.2c0,1,0.4,1.8,1.4,1.8c0.6,0,1.1-0.3,1.2-1h0.9c0,0.2-0.1,0.7-0.4,1.1
			c-0.2,0.2-0.7,0.7-1.7,0.7c-1.6,0-2.3-1-2.3-2.6c0-1,0.2-1.8,1-2.4c0.5-0.3,1.1-0.4,1.4-0.4c2.2,0,2.2,2,2.2,2.8H396.1z
			 M398.8,440.5c0-0.5-0.1-1.5-1.2-1.5c-0.6,0-1.3,0.4-1.4,1.5H398.8z"/>
		<path fill="#FFFFFF" d="M403.9,436.3h0.9v7.2h-0.9V436.3z"/>
		<path fill="#FFFFFF" d="M408.9,438.4c2,0,2.5,1.6,2.5,2.6c0,1.5-0.8,2.7-2.5,2.7c-1.7,0-2.5-1.2-2.5-2.6
			C406.3,439.8,406.9,438.4,408.9,438.4z M408.8,443c0.7,0,1.5-0.5,1.5-2c0-1.2-0.6-1.9-1.5-1.9c-0.6,0-1.6,0.4-1.6,1.9
			C407.3,442,407.7,443,408.8,443z"/>
		<path fill="#FFFFFF" d="M413.7,443.9c0,0.6,0.3,1,1.2,1c1.3,0,1.3-0.9,1.3-2.3c-0.4,0.8-1.3,0.8-1.6,0.8c-0.5,0-1.1-0.1-1.5-0.6
			c-0.4-0.5-0.6-1.2-0.6-1.8c0-1.7,1-2.5,2.2-2.5c1,0,1.4,0.5,1.6,0.8l0-0.7h0.9l0,0.9l0,3.1c0,1.2,0,1.7-0.2,2.1
			c-0.4,0.8-1.4,0.9-2.1,0.9c-2,0-2.1-0.9-2.1-1.6H413.7z M415.9,442.2c0.2-0.3,0.3-0.5,0.3-1.4c0-0.6-0.1-1-0.4-1.2
			c-0.2-0.3-0.6-0.4-1.1-0.4c-1.2,0-1.3,1.2-1.3,1.8c0,0.8,0.2,1.8,1.4,1.8C415.3,442.7,415.6,442.5,415.9,442.2z"/>
		<path fill="#FFFFFF" d="M421.1,438.4c2,0,2.5,1.6,2.5,2.6c0,1.5-0.8,2.7-2.5,2.7c-1.7,0-2.5-1.2-2.5-2.6
			C418.5,439.8,419.1,438.4,421.1,438.4z M421,443c0.7,0,1.5-0.5,1.5-2c0-1.2-0.6-1.9-1.5-1.9c-0.6,0-1.6,0.4-1.6,1.9
			C419.5,442,419.9,443,421,443z"/>
		<path fill="#FFFFFF" d="M427.7,436.3h1.1v1h-1.1V436.3z M427.8,438.5h0.9v5h-0.9V438.5z"/>
		<path fill="#FFFFFF" d="M431.1,442c0,0.4,0.2,0.9,1.1,0.9c0.4,0,0.7-0.1,0.9-0.3c0.1-0.1,0.2-0.3,0.2-0.5c0-0.5-0.3-0.6-1.1-0.8
			c-1-0.2-1.9-0.4-1.9-1.5c0-0.9,0.8-1.5,2-1.5c0.6,0,1.5,0.2,1.8,0.8c0.1,0.3,0.1,0.5,0.1,0.7h-1c0-0.8-0.6-0.8-1-0.8
			c-0.1,0-1,0-1,0.7c0,0.5,0.4,0.6,0.7,0.6c1.4,0.3,1.7,0.4,2,0.7c0.3,0.3,0.4,0.6,0.4,0.9c0,0.6-0.3,1-0.7,1.3
			c-0.4,0.3-1,0.3-1.5,0.3c-1,0-2-0.4-2-1.6H431.1z"/>
		<path fill="#FFFFFF" d="M440.9,437c-0.2,0-0.4,0-0.5,0c-0.8,0-0.8,0.4-0.8,0.7v0.8h1.2v0.7h-1.2v4.3h-0.9v-4.3h-1v-0.7h1v-0.6
			c0-0.7,0-0.9,0.2-1.2c0.2-0.3,0.6-0.5,1.3-0.5c0.3,0,0.6,0,0.8,0.1V437z"/>
		<path fill="#FFFFFF" d="M443.9,438.4c2,0,2.5,1.6,2.5,2.6c0,1.5-0.8,2.7-2.5,2.7c-1.7,0-2.5-1.2-2.5-2.6
			C441.3,439.8,441.9,438.4,443.9,438.4z M443.8,443c0.7,0,1.5-0.5,1.5-2c0-1.2-0.6-1.9-1.5-1.9c-0.6,0-1.6,0.4-1.6,1.9
			C442.3,442,442.7,443,443.8,443z"/>
		<path fill="#FFFFFF" d="M447.8,439.5c0-0.3,0-0.7,0-1h0.9l0,1c0.2-0.7,0.8-0.9,1.2-1c0.3,0,0.5,0,0.7,0v0.9c0,0-0.1,0-0.2,0
			c-0.1,0-0.2,0-0.3,0c-1.1,0-1.4,0.7-1.4,1.5v2.7h-0.9V439.5z"/>
		<path fill="#FFFFFF" d="M454.4,439.3c0-0.2,0-0.3,0-0.8h0.9l0,0.8c0.5-0.8,1.3-0.9,1.7-0.9c1.1,0,2.1,0.7,2.1,2.6
			c0,1.9-1.1,2.7-2.3,2.7c-0.7,0-1.3-0.3-1.5-0.8v2.5h-0.9V439.3z M456.7,443c0.2,0,0.7-0.1,1.1-0.5c0.4-0.5,0.4-1.2,0.4-1.6
			c0-0.9-0.3-1.8-1.4-1.8c-1.5,0-1.5,1.6-1.5,2C455.3,441.8,455.4,443,456.7,443z"/>
		<path fill="#FFFFFF" d="M460.6,439.5c0-0.3,0-0.7,0-1h0.9l0,1c0.2-0.7,0.8-0.9,1.2-1c0.3,0,0.5,0,0.7,0v0.9c0,0-0.1,0-0.2,0
			c-0.1,0-0.2,0-0.3,0c-1.1,0-1.4,0.7-1.4,1.5v2.7h-0.9V439.5z"/>
		<path fill="#FFFFFF" d="M464.4,436.3h1.1v1h-1.1V436.3z M464.5,438.5h0.9v5h-0.9V438.5z"/>
		<path fill="#FFFFFF" d="M467.2,439.2l0-0.7h0.9v0.7c0.5-0.8,1.2-0.9,1.6-0.9c1.1,0,1.5,0.6,1.6,0.9c0.2-0.3,0.6-0.9,1.7-0.9
			c0.7,0,1.8,0.3,1.8,1.8v3.4h-1v-3.2c0-0.4-0.1-0.6-0.2-0.8c-0.2-0.2-0.5-0.4-1-0.4c-0.6,0-0.9,0.3-1.1,0.5
			c-0.2,0.3-0.2,0.9-0.2,1.1v2.8h-1v-3.3c0-0.6-0.4-1.1-1.1-1.1c-0.6,0-1,0.4-1.1,0.5c-0.2,0.3-0.2,0.7-0.2,1v2.8h-1V439.2z"/>
		<path fill="#FFFFFF" d="M479.7,443.5c-0.1-0.2-0.1-0.5-0.1-0.8c-0.4,0.8-1.1,0.9-1.5,0.9c-1.1,0-1.8-0.7-1.8-1.5
			c0-0.4,0.1-1,0.9-1.5c0.5-0.3,1.3-0.3,1.7-0.3c0.2,0,0.4,0,0.7,0c0-0.6,0-0.9-0.2-1.1c-0.2-0.2-0.6-0.3-0.9-0.3
			c-0.9,0-1,0.6-1,0.8h-0.9c0-0.3,0.1-0.6,0.4-1c0.4-0.4,1.1-0.5,1.6-0.5c0.7,0,1.5,0.2,1.8,0.7c0.2,0.3,0.2,0.5,0.2,0.8l0,2.4
			c0,0.1,0,0.8,0.1,1.3H479.7z M479.1,441c-0.4,0-1.8,0-1.8,1c0,0.3,0.2,0.9,1,0.9c0.5,0,0.8-0.2,1.1-0.5c0.2-0.3,0.2-0.6,0.2-1.3
			C479.5,441.1,479.3,441,479.1,441z"/>
		<path fill="#FFFFFF" d="M482.3,439.5c0-0.3,0-0.7,0-1h0.9l0,1c0.2-0.7,0.8-0.9,1.2-1c0.3,0,0.5,0,0.7,0v0.9c0,0-0.1,0-0.2,0
			c-0.1,0-0.2,0-0.3,0c-1.1,0-1.4,0.7-1.4,1.5v2.7h-0.9V439.5z"/>
		<path fill="#FFFFFF" d="M488.4,443.5l-0.7,1.9h-1l0.8-1.9l-2.1-5h1.1l1.6,4l1.6-4h1L488.4,443.5z"/>
		<path fill="#FFFFFF" d="M495.3,438.5v3.2c0,0.5,0.1,1.1,1.1,1.1c0.5,0,0.9-0.2,1.2-0.6c0.2-0.3,0.2-0.7,0.2-0.9v-2.8h1v4.1
			c0,0.1,0,0.7,0,0.9h-1l0-0.9c-0.2,0.3-0.5,0.9-1.6,0.9c-1.2,0-1.8-0.7-1.8-1.7v-3.4H495.3z"/>
		<path fill="#FFFFFF" d="M501.1,442c0,0.4,0.2,0.9,1.1,0.9c0.4,0,0.7-0.1,0.9-0.3c0.1-0.1,0.2-0.3,0.2-0.5c0-0.5-0.3-0.6-1.1-0.8
			c-1-0.2-1.9-0.4-1.9-1.5c0-0.9,0.8-1.5,2-1.5c0.6,0,1.5,0.2,1.8,0.8c0.1,0.3,0.1,0.5,0.1,0.7h-1c0-0.8-0.6-0.8-1-0.8
			c-0.1,0-1,0-1,0.7c0,0.5,0.4,0.6,0.7,0.6c1.4,0.3,1.7,0.4,2,0.7c0.3,0.3,0.4,0.6,0.4,0.9c0,0.6-0.3,1-0.7,1.3
			c-0.4,0.3-1,0.3-1.5,0.3c-1,0-2-0.4-2-1.6H501.1z"/>
		<path fill="#FFFFFF" d="M506.1,441.2c0,1,0.4,1.8,1.4,1.8c0.6,0,1.1-0.3,1.2-1h0.9c0,0.2-0.1,0.7-0.4,1.1
			c-0.2,0.2-0.7,0.7-1.7,0.7c-1.6,0-2.3-1-2.3-2.6c0-1,0.2-1.8,1-2.4c0.5-0.3,1.1-0.4,1.4-0.4c2.2,0,2.2,2,2.2,2.8H506.1z
			 M508.8,440.5c0-0.5-0.1-1.5-1.2-1.5c-0.6,0-1.3,0.4-1.4,1.5H508.8z"/>
		<path fill="#FFFFFF" d="M511.1,442.3h1.1v1.2h-1.1V442.3z"/>
		<path fill="#FFFFFF" d="M368.5,454.6l1.8-1.8c0.4-0.4,0.8-0.8,1.1-1.2c0.4-0.5,0.5-0.9,0.5-1.2c0-0.3-0.1-1.1-1.1-1.1
			c-1.1,0-1.1,0.9-1.1,1.2h-1c0-0.3,0-1,0.6-1.5c0.5-0.4,1.1-0.5,1.5-0.5c1.1,0,2.1,0.5,2.1,2c0,0.4,0,0.8-0.8,1.7
			c-0.2,0.2-1.1,1.2-1.3,1.4l-1.2,1.1h3.3v0.8h-4.4V454.6z"/>
		<path fill="#FFFFFF" d="M380.1,448.3h2.6c0.9,0,1.4,0.1,1.8,0.5c0.3,0.3,0.5,0.7,0.5,1.3c0,1.2-0.9,1.5-1.2,1.6
			c0.4,0.1,1.4,0.4,1.4,1.8c0,1-0.6,1.5-0.9,1.6c-0.5,0.3-1.1,0.3-1.6,0.3h-2.6V448.3z M381,451.3h1.4c0.3,0,1.5,0,1.5-1.1
			c0-1.1-0.9-1.1-1.5-1.1H381V451.3z M381,454.7h1.7c0.8,0,1.4-0.4,1.4-1.2c0-0.7-0.5-1.2-1.4-1.2H381V454.7z"/>
		<path fill="#FFFFFF" d="M386.7,448.3h0.9v7.2h-0.9V448.3z"/>
		<path fill="#FFFFFF" d="M392.5,455.5c-0.1-0.2-0.1-0.5-0.1-0.8c-0.4,0.8-1.1,0.9-1.5,0.9c-1.1,0-1.8-0.7-1.8-1.5
			c0-0.4,0.1-1,0.9-1.5c0.5-0.3,1.3-0.3,1.7-0.3c0.2,0,0.4,0,0.7,0c0-0.6,0-0.9-0.2-1.1c-0.2-0.2-0.6-0.3-0.9-0.3
			c-0.9,0-1,0.6-1,0.8h-0.9c0-0.3,0.1-0.6,0.4-1c0.4-0.4,1.1-0.5,1.6-0.5c0.7,0,1.5,0.2,1.8,0.7c0.2,0.3,0.2,0.5,0.2,0.8l0,2.4
			c0,0.1,0,0.8,0.1,1.3H392.5z M391.9,453c-0.4,0-1.8,0-1.8,1c0,0.3,0.2,0.9,1,0.9c0.5,0,0.8-0.2,1.1-0.5c0.2-0.3,0.2-0.6,0.2-1.3
			C392.2,453.1,392.1,453,391.9,453z"/>
		<path fill="#FFFFFF" d="M397.9,452.1c0-0.2-0.1-1-1-1c-1.3,0-1.3,1.5-1.3,1.9c0,1,0.2,2,1.2,2c0.8,0,1.1-0.6,1.1-1.1h0.9
			c-0.1,1-0.8,1.8-2,1.8c-0.3,0-1.1-0.1-1.6-0.6c-0.3-0.4-0.6-0.9-0.6-1.9c0-2.1,1.3-2.7,2.3-2.7c0.3,0,1.1,0.1,1.5,0.6
			c0.4,0.4,0.4,0.8,0.4,1.1H397.9z"/>
		<path fill="#FFFFFF" d="M399.4,448.2h0.9v4.3l1.9-2h1.2l-2.1,2.1l2.2,2.9h-1.2l-2-2.7v2.7h-0.9V448.2z"/>
		<path fill="#FFFFFF" d="M407.3,448.3h0.9v7.2h-0.9V448.3z"/>
		<path fill="#FFFFFF" d="M412.2,450.4c2,0,2.5,1.6,2.5,2.6c0,1.5-0.8,2.7-2.5,2.7c-1.7,0-2.5-1.2-2.5-2.6
			C409.7,451.8,410.3,450.4,412.2,450.4z M412.2,455c0.7,0,1.5-0.5,1.5-2c0-1.2-0.6-1.9-1.5-1.9c-0.6,0-1.6,0.4-1.6,1.9
			C410.7,454,411.1,455,412.2,455z"/>
		<path fill="#FFFFFF" d="M417.1,455.9c0,0.6,0.3,1,1.2,1c1.3,0,1.3-0.9,1.3-2.3c-0.4,0.8-1.3,0.8-1.6,0.8c-0.5,0-1.1-0.1-1.5-0.6
			c-0.4-0.5-0.6-1.2-0.6-1.8c0-1.7,1-2.5,2.2-2.5c1,0,1.4,0.5,1.6,0.8l0-0.7h0.9l0,0.9l0,3.1c0,1.2,0,1.7-0.2,2.1
			c-0.4,0.8-1.4,0.9-2.1,0.9c-2,0-2.1-0.9-2.1-1.6H417.1z M419.3,454.2c0.2-0.3,0.3-0.5,0.3-1.4c0-0.6-0.1-1-0.4-1.2
			c-0.2-0.3-0.6-0.4-1.1-0.4c-1.2,0-1.3,1.2-1.3,1.8c0,0.8,0.2,1.8,1.4,1.8C418.7,454.7,419,454.5,419.3,454.2z"/>
		<path fill="#FFFFFF" d="M424.5,450.4c2,0,2.5,1.6,2.5,2.6c0,1.5-0.8,2.7-2.5,2.7c-1.7,0-2.5-1.2-2.5-2.6
			C421.9,451.8,422.5,450.4,424.5,450.4z M424.4,455c0.7,0,1.5-0.5,1.5-2c0-1.2-0.6-1.9-1.5-1.9c-0.6,0-1.6,0.4-1.6,1.9
			C422.9,454,423.3,455,424.4,455z"/>
		<path fill="#FFFFFF" d="M431.1,448.3h1.1v1h-1.1V448.3z M431.2,450.5h0.9v5h-0.9V450.5z"/>
		<path fill="#FFFFFF" d="M434.5,454c0,0.4,0.2,0.9,1.1,0.9c0.4,0,0.7-0.1,0.9-0.3c0.1-0.1,0.2-0.3,0.2-0.5c0-0.5-0.3-0.6-1.1-0.8
			c-1-0.2-1.9-0.4-1.9-1.5c0-0.9,0.8-1.5,2-1.5c0.6,0,1.5,0.2,1.8,0.8c0.1,0.3,0.1,0.5,0.1,0.7h-1c0-0.8-0.6-0.8-1-0.8
			c-0.1,0-1,0-1,0.7c0,0.5,0.4,0.6,0.7,0.6c1.4,0.3,1.7,0.4,2,0.7c0.3,0.3,0.4,0.6,0.4,0.9c0,0.6-0.3,1-0.7,1.3
			c-0.4,0.3-1,0.3-1.5,0.3c-1,0-2-0.4-2-1.6H434.5z"/>
		<path fill="#FFFFFF" d="M444.2,449c-0.2,0-0.4,0-0.5,0c-0.8,0-0.8,0.4-0.8,0.7v0.8h1.2v0.7h-1.2v4.3H442v-4.3h-1v-0.7h1v-0.6
			c0-0.7,0-0.9,0.2-1.2c0.2-0.3,0.6-0.5,1.3-0.5c0.3,0,0.6,0,0.8,0.1V449z"/>
		<path fill="#FFFFFF" d="M447.2,450.4c2,0,2.5,1.6,2.5,2.6c0,1.5-0.8,2.7-2.5,2.7c-1.7,0-2.5-1.2-2.5-2.6
			C444.7,451.8,445.3,450.4,447.2,450.4z M447.2,455c0.7,0,1.5-0.5,1.5-2c0-1.2-0.6-1.9-1.5-1.9c-0.6,0-1.6,0.4-1.6,1.9
			C445.7,454,446.1,455,447.2,455z"/>
		<path fill="#FFFFFF" d="M451.2,451.5c0-0.3,0-0.7,0-1h0.9l0,1c0.2-0.7,0.8-0.9,1.2-1c0.3,0,0.5,0,0.7,0v0.9c0,0-0.1,0-0.2,0
			c-0.1,0-0.2,0-0.3,0c-1.1,0-1.4,0.7-1.4,1.5v2.7h-0.9V451.5z"/>
		<path fill="#FFFFFF" d="M458.4,454c0,0.4,0.2,0.9,1.1,0.9c0.4,0,0.7-0.1,0.9-0.3c0.1-0.1,0.2-0.3,0.2-0.5c0-0.5-0.3-0.6-1.1-0.8
			c-1-0.2-1.9-0.4-1.9-1.5c0-0.9,0.8-1.5,2-1.5c0.6,0,1.5,0.2,1.8,0.8c0.1,0.3,0.1,0.5,0.1,0.7h-1c0-0.8-0.6-0.8-1-0.8
			c-0.1,0-1,0-1,0.7c0,0.5,0.4,0.6,0.7,0.6c1.4,0.3,1.7,0.4,2,0.7c0.3,0.3,0.4,0.6,0.4,0.9c0,0.6-0.3,1-0.7,1.3
			c-0.4,0.3-1,0.3-1.5,0.3c-1,0-2-0.4-2-1.6H458.4z"/>
		<path fill="#FFFFFF" d="M463.4,453.2c0,1,0.4,1.8,1.4,1.8c0.6,0,1.1-0.3,1.2-1h0.9c0,0.2-0.1,0.7-0.4,1.1
			c-0.2,0.2-0.7,0.7-1.7,0.7c-1.6,0-2.3-1-2.3-2.6c0-1,0.2-1.8,1-2.4c0.5-0.3,1.1-0.4,1.4-0.4c2.2,0,2.2,2,2.2,2.8H463.4z
			 M466.1,452.5c0-0.5-0.1-1.5-1.2-1.5c-0.6,0-1.3,0.4-1.4,1.5H466.1z"/>
		<path fill="#FFFFFF" d="M471.3,452.1c0-0.2-0.1-1-1-1c-1.3,0-1.3,1.5-1.3,1.9c0,1,0.2,2,1.2,2c0.8,0,1.1-0.6,1.1-1.1h0.9
			c-0.1,1-0.8,1.8-2,1.8c-0.3,0-1.1-0.1-1.6-0.6c-0.3-0.4-0.6-0.9-0.6-1.9c0-2.1,1.3-2.7,2.3-2.7c0.3,0,1.1,0.1,1.5,0.6
			c0.4,0.4,0.4,0.8,0.4,1.1H471.3z"/>
		<path fill="#FFFFFF" d="M475.6,450.4c2,0,2.5,1.6,2.5,2.6c0,1.5-0.8,2.7-2.5,2.7c-1.7,0-2.5-1.2-2.5-2.6
			C473,451.8,473.6,450.4,475.6,450.4z M475.5,455c0.7,0,1.5-0.5,1.5-2c0-1.2-0.6-1.9-1.5-1.9c-0.6,0-1.6,0.4-1.6,1.9
			C474,454,474.5,455,475.5,455z"/>
		<path fill="#FFFFFF" d="M479.5,451.1l0-0.6h0.9l0,0.8c0.1-0.2,0.5-0.9,1.6-0.9c0.5,0,1.8,0.2,1.8,1.7v3.4h-1v-3.2
			c0-0.3,0-0.6-0.3-0.9c-0.2-0.2-0.6-0.3-0.9-0.3c-0.7,0-1.3,0.5-1.3,1.5v2.9h-0.9V451.1z"/>
		<path fill="#FFFFFF" d="M489.1,448.3h0.9v6.4c0,0.1,0,0.5,0,0.8h-0.9l0-0.8c-0.1,0.1-0.2,0.4-0.5,0.5c-0.4,0.3-0.9,0.4-1.2,0.4
			c-0.7,0-2.2-0.3-2.2-2.5c0-1.9,1.1-2.7,2.3-2.7c1.1,0,1.4,0.6,1.6,0.8V448.3z M488.8,451.5c-0.2-0.3-0.6-0.5-1.1-0.5
			c-1.4,0-1.4,1.7-1.4,2c0,0.9,0.2,1.9,1.4,1.9c1.5,0,1.5-1.6,1.5-2C489.1,452.2,489,451.8,488.8,451.5z"/>
		<path fill="#FFFFFF" d="M494.8,455.5c-0.1-0.2-0.1-0.5-0.1-0.8c-0.4,0.8-1.1,0.9-1.5,0.9c-1.1,0-1.8-0.7-1.8-1.5
			c0-0.4,0.1-1,0.9-1.5c0.5-0.3,1.3-0.3,1.7-0.3c0.2,0,0.4,0,0.7,0c0-0.6,0-0.9-0.2-1.1c-0.2-0.2-0.6-0.3-0.9-0.3
			c-0.9,0-1,0.6-1,0.8h-0.9c0-0.3,0.1-0.6,0.4-1c0.4-0.4,1.1-0.5,1.6-0.5c0.7,0,1.5,0.2,1.8,0.7c0.2,0.3,0.2,0.5,0.2,0.8l0,2.4
			c0,0.1,0,0.8,0.1,1.3H494.8z M494.1,453c-0.4,0-1.8,0-1.8,1c0,0.3,0.2,0.9,1,0.9c0.5,0,0.8-0.2,1.1-0.5c0.2-0.3,0.2-0.6,0.2-1.3
			C494.5,453.1,494.4,453,494.1,453z"/>
		<path fill="#FFFFFF" d="M497.4,451.5c0-0.3,0-0.7,0-1h0.9l0,1c0.2-0.7,0.8-0.9,1.2-1c0.3,0,0.5,0,0.7,0v0.9c0,0-0.1,0-0.2,0
			c-0.1,0-0.2,0-0.3,0c-1.1,0-1.4,0.7-1.4,1.5v2.7h-0.9V451.5z"/>
		<path fill="#FFFFFF" d="M503.4,455.5l-0.7,1.9h-1l0.8-1.9l-2.1-5h1.1l1.6,4l1.6-4h1L503.4,455.5z"/>
		<path fill="#FFFFFF" d="M510.4,450.5v3.2c0,0.5,0.1,1.1,1.1,1.1c0.5,0,0.9-0.2,1.2-0.6c0.2-0.3,0.2-0.7,0.2-0.9v-2.8h1v4.1
			c0,0.1,0,0.7,0,0.9h-1l0-0.9c-0.2,0.3-0.5,0.9-1.6,0.9c-1.2,0-1.8-0.7-1.8-1.7v-3.4H510.4z"/>
		<path fill="#FFFFFF" d="M516.2,454c0,0.4,0.2,0.9,1.1,0.9c0.4,0,0.7-0.1,0.9-0.3c0.1-0.1,0.2-0.3,0.2-0.5c0-0.5-0.3-0.6-1.1-0.8
			c-1-0.2-1.9-0.4-1.9-1.5c0-0.9,0.8-1.5,2-1.5c0.6,0,1.5,0.2,1.8,0.8c0.1,0.3,0.1,0.5,0.1,0.7h-1c0-0.8-0.6-0.8-1-0.8
			c-0.1,0-1,0-1,0.7c0,0.5,0.4,0.6,0.7,0.6c1.4,0.3,1.7,0.4,2,0.7c0.3,0.3,0.4,0.6,0.4,0.9c0,0.6-0.3,1-0.7,1.3
			c-0.4,0.3-1,0.3-1.5,0.3c-1,0-2-0.4-2-1.6H516.2z"/>
		<path fill="#FFFFFF" d="M521.2,453.2c0,1,0.4,1.8,1.4,1.8c0.6,0,1.1-0.3,1.2-1h0.9c0,0.2-0.1,0.7-0.4,1.1
			c-0.2,0.2-0.7,0.7-1.7,0.7c-1.6,0-2.3-1-2.3-2.6c0-1,0.2-1.8,1-2.4c0.5-0.3,1.1-0.4,1.4-0.4c2.2,0,2.2,2,2.2,2.8H521.2z
			 M523.9,452.5c0-0.5-0.1-1.5-1.2-1.5c-0.6,0-1.3,0.4-1.4,1.5H523.9z"/>
		<path fill="#FFFFFF" d="M526.1,454.3h1.1v1.2h-1.1V454.3z"/>
		<path fill="#FFFFFF" d="M369.4,465.7c0,0.7,0.4,1.1,1.3,1.1c1,0,1.4-0.6,1.4-1.2c0-0.7-0.5-1.1-1-1.2c-0.4-0.1-0.6-0.1-1,0v-0.8
			c0.7,0.1,1.8-0.1,1.8-1.2c0-0.8-0.5-1.1-1.2-1.1c-0.5,0-1.2,0.2-1.3,1.1h-1c0.1-1.7,1.7-1.9,2.2-1.9c1.5,0,2.3,0.9,2.3,1.9
			c0,0.6-0.3,1.4-1.4,1.6c1.5,0.2,1.5,1.5,1.5,1.7c0,1-0.8,2-2.4,2c-0.7,0-1.5-0.2-1.9-0.7c-0.4-0.4-0.4-0.9-0.4-1.2H369.4z"/>
		<path fill="#FFFFFF" d="M384.9,462.1c-0.1-0.7-0.6-1.1-1.6-1.1c-0.7,0-1.2,0.2-1.6,0.6c-0.6,0.7-0.8,1.6-0.8,2.3
			c0,0.6,0.1,1.6,0.7,2.3c0.5,0.5,1.2,0.7,1.9,0.7c0.8,0,1.3-0.2,1.6-0.2v-2.1h-1.6v-0.8h2.6v3.6c-0.4,0.1-1.3,0.4-2.6,0.4
			c-1.3,0-2.1-0.4-2.6-0.9c-0.7-0.7-1-1.7-1-2.7c0-0.7,0.2-2.4,1.5-3.3c0.7-0.5,1.6-0.5,2-0.5c0.6,0,1.4,0.1,2.1,0.8
			c0.4,0.4,0.5,0.9,0.5,1.1H384.9z"/>
		<path fill="#FFFFFF" d="M387.8,463.5c0-0.3,0-0.7,0-1h0.9l0,1c0.2-0.7,0.8-0.9,1.2-1c0.3,0,0.5,0,0.7,0v0.9c0,0-0.1,0-0.2,0
			c-0.1,0-0.2,0-0.3,0c-1.1,0-1.4,0.7-1.4,1.5v2.7h-0.9V463.5z"/>
		<path fill="#FFFFFF" d="M392.2,465.2c0,1,0.4,1.8,1.4,1.8c0.6,0,1.1-0.3,1.2-1h0.9c0,0.2-0.1,0.7-0.4,1.1
			c-0.2,0.2-0.7,0.7-1.7,0.7c-1.6,0-2.3-1-2.3-2.6c0-1,0.2-1.8,1-2.4c0.5-0.3,1.1-0.4,1.4-0.4c2.2,0,2.2,2,2.2,2.8H392.2z
			 M394.9,464.5c0-0.5-0.1-1.5-1.2-1.5c-0.6,0-1.3,0.4-1.4,1.5H394.9z"/>
		<path fill="#FFFFFF" d="M399.5,467.5l-0.7,1.9h-1l0.8-1.9l-2.1-5h1.1l1.6,4l1.6-4h1L399.5,467.5z"/>
		<path fill="#FFFFFF" d="M405.6,460.3h0.9v7.2h-0.9V460.3z"/>
		<path fill="#FFFFFF" d="M410.5,462.4c2,0,2.5,1.6,2.5,2.6c0,1.5-0.8,2.7-2.5,2.7c-1.7,0-2.5-1.2-2.5-2.6
			C408,463.8,408.6,462.4,410.5,462.4z M410.5,467c0.7,0,1.5-0.5,1.5-2c0-1.2-0.6-1.9-1.5-1.9c-0.6,0-1.6,0.4-1.6,1.9
			C409,466,409.4,467,410.5,467z"/>
		<path fill="#FFFFFF" d="M415.4,467.9c0,0.6,0.3,1,1.2,1c1.3,0,1.3-0.9,1.3-2.3c-0.4,0.8-1.3,0.8-1.6,0.8c-0.5,0-1.1-0.1-1.5-0.6
			c-0.4-0.5-0.6-1.2-0.6-1.8c0-1.7,1-2.5,2.2-2.5c1,0,1.4,0.5,1.6,0.8l0-0.7h0.9l0,0.9l0,3.1c0,1.2,0,1.7-0.2,2.1
			c-0.4,0.8-1.4,0.9-2.1,0.9c-2,0-2.1-0.9-2.1-1.6H415.4z M417.5,466.2c0.2-0.3,0.3-0.5,0.3-1.4c0-0.6-0.1-1-0.4-1.2
			c-0.2-0.3-0.6-0.4-1.1-0.4c-1.2,0-1.3,1.2-1.3,1.8c0,0.8,0.2,1.8,1.4,1.8C417,466.7,417.3,466.5,417.5,466.2z"/>
		<path fill="#FFFFFF" d="M422.7,462.4c2,0,2.5,1.6,2.5,2.6c0,1.5-0.8,2.7-2.5,2.7c-1.7,0-2.5-1.2-2.5-2.6
			C420.2,463.8,420.8,462.4,422.7,462.4z M422.7,467c0.7,0,1.5-0.5,1.5-2c0-1.2-0.6-1.9-1.5-1.9c-0.6,0-1.6,0.4-1.6,1.9
			C421.2,466,421.6,467,422.7,467z"/>
		<path fill="#FFFFFF" d="M429.4,460.3h1.1v1h-1.1V460.3z M429.5,462.5h0.9v5h-0.9V462.5z"/>
		<path fill="#FFFFFF" d="M432.8,466c0,0.4,0.2,0.9,1.1,0.9c0.4,0,0.7-0.1,0.9-0.3c0.1-0.1,0.2-0.3,0.2-0.5c0-0.5-0.3-0.6-1.1-0.8
			c-1-0.2-1.9-0.4-1.9-1.5c0-0.9,0.8-1.5,2-1.5c0.6,0,1.5,0.2,1.8,0.8c0.1,0.3,0.1,0.5,0.1,0.7h-1c0-0.8-0.6-0.8-1-0.8
			c-0.1,0-1,0-1,0.7c0,0.5,0.4,0.6,0.7,0.6c1.4,0.3,1.7,0.4,2,0.7c0.3,0.3,0.4,0.6,0.4,0.9c0,0.6-0.3,1-0.7,1.3
			c-0.4,0.3-1,0.3-1.5,0.3c-1,0-2-0.4-2-1.6H432.8z"/>
		<path fill="#FFFFFF" d="M442.5,461c-0.2,0-0.4,0-0.5,0c-0.8,0-0.8,0.4-0.8,0.7v0.8h1.2v0.7h-1.2v4.3h-0.9v-4.3h-1v-0.7h1v-0.6
			c0-0.7,0-0.9,0.2-1.2c0.2-0.3,0.6-0.5,1.3-0.5c0.3,0,0.6,0,0.8,0.1V461z"/>
		<path fill="#FFFFFF" d="M445.5,462.4c2,0,2.5,1.6,2.5,2.6c0,1.5-0.8,2.7-2.5,2.7c-1.7,0-2.5-1.2-2.5-2.6
			C443,463.8,443.6,462.4,445.5,462.4z M445.5,467c0.7,0,1.5-0.5,1.5-2c0-1.2-0.6-1.9-1.5-1.9c-0.6,0-1.6,0.4-1.6,1.9
			C444,466,444.4,467,445.5,467z"/>
		<path fill="#FFFFFF" d="M449.5,463.5c0-0.3,0-0.7,0-1h0.9l0,1c0.2-0.7,0.8-0.9,1.2-1c0.3,0,0.5,0,0.7,0v0.9c0,0-0.1,0-0.2,0
			c-0.1,0-0.2,0-0.3,0c-1.1,0-1.4,0.7-1.4,1.5v2.7h-0.9V463.5z"/>
		<path fill="#FFFFFF" d="M455.4,462.5h0.9v-1l0.9-0.3v1.3h1.1v0.7h-1.1v3c0,0.2,0,0.7,0.7,0.7c0.2,0,0.4,0,0.4-0.1v0.7
			c-0.2,0-0.4,0.1-0.8,0.1c-0.9,0-1.3-0.2-1.3-1.1v-3.3h-0.9V462.5z"/>
		<path fill="#FFFFFF" d="M460,465.2c0,1,0.4,1.8,1.4,1.8c0.6,0,1.1-0.3,1.2-1h0.9c0,0.2-0.1,0.7-0.4,1.1c-0.2,0.2-0.7,0.7-1.7,0.7
			c-1.6,0-2.3-1-2.3-2.6c0-1,0.2-1.8,1-2.4c0.5-0.3,1.1-0.4,1.4-0.4c2.2,0,2.2,2,2.2,2.8H460z M462.7,464.5c0-0.5-0.1-1.5-1.2-1.5
			c-0.6,0-1.3,0.4-1.4,1.5H462.7z"/>
		<path fill="#FFFFFF" d="M465.1,463.5c0-0.3,0-0.7,0-1h0.9l0,1c0.2-0.7,0.8-0.9,1.2-1c0.3,0,0.5,0,0.7,0v0.9c0,0-0.1,0-0.2,0
			c-0.1,0-0.2,0-0.3,0c-1.1,0-1.4,0.7-1.4,1.5v2.7h-0.9V463.5z"/>
		<path fill="#FFFFFF" d="M467.9,462.5h0.9v-1l0.9-0.3v1.3h1.1v0.7h-1.1v3c0,0.2,0,0.7,0.7,0.7c0.2,0,0.4,0,0.4-0.1v0.7
			c-0.2,0-0.4,0.1-0.8,0.1c-0.9,0-1.3-0.2-1.3-1.1v-3.3h-0.9V462.5z"/>
		<path fill="#FFFFFF" d="M471.9,460.3h1.1v1h-1.1V460.3z M472,462.5h0.9v5H472V462.5z"/>
		<path fill="#FFFFFF" d="M477.8,467.5c-0.1-0.2-0.1-0.5-0.1-0.8c-0.4,0.8-1.1,0.9-1.5,0.9c-1.1,0-1.8-0.7-1.8-1.5
			c0-0.4,0.1-1,0.9-1.5c0.5-0.3,1.3-0.3,1.7-0.3c0.2,0,0.4,0,0.7,0c0-0.6,0-0.9-0.2-1.1c-0.2-0.2-0.6-0.3-0.9-0.3
			c-0.9,0-1,0.6-1,0.8h-0.9c0-0.3,0.1-0.6,0.4-1c0.4-0.4,1.1-0.5,1.6-0.5c0.7,0,1.5,0.2,1.8,0.7c0.2,0.3,0.2,0.5,0.2,0.8l0,2.4
			c0,0.1,0,0.8,0.1,1.3H477.8z M477.2,465c-0.4,0-1.8,0-1.8,1c0,0.3,0.2,0.9,1,0.9c0.5,0,0.8-0.2,1.1-0.5c0.2-0.3,0.2-0.6,0.2-1.3
			C477.5,465.1,477.4,465,477.2,465z"/>
		<path fill="#FFFFFF" d="M480.4,463.5c0-0.3,0-0.7,0-1h0.9l0,1c0.2-0.7,0.8-0.9,1.2-1c0.3,0,0.5,0,0.7,0v0.9c0,0-0.1,0-0.2,0
			c-0.1,0-0.2,0-0.3,0c-1.1,0-1.4,0.7-1.4,1.5v2.7h-0.9V463.5z"/>
		<path fill="#FFFFFF" d="M486.5,467.5l-0.7,1.9h-1l0.8-1.9l-2.1-5h1.1l1.6,4l1.6-4h1L486.5,467.5z"/>
		<path fill="#FFFFFF" d="M493.4,462.5v3.2c0,0.5,0.1,1.1,1.1,1.1c0.5,0,0.9-0.2,1.2-0.6c0.2-0.3,0.2-0.7,0.2-0.9v-2.8h1v4.1
			c0,0.1,0,0.7,0,0.9h-1l0-0.9c-0.2,0.3-0.5,0.9-1.6,0.9c-1.2,0-1.8-0.7-1.8-1.7v-3.4H493.4z"/>
		<path fill="#FFFFFF" d="M499.2,466c0,0.4,0.2,0.9,1.1,0.9c0.4,0,0.7-0.1,0.9-0.3c0.1-0.1,0.2-0.3,0.2-0.5c0-0.5-0.3-0.6-1.1-0.8
			c-1-0.2-1.9-0.4-1.9-1.5c0-0.9,0.8-1.5,2-1.5c0.6,0,1.5,0.2,1.8,0.8c0.1,0.3,0.1,0.5,0.1,0.7h-1c0-0.8-0.6-0.8-1-0.8
			c-0.1,0-1,0-1,0.7c0,0.5,0.4,0.6,0.7,0.6c1.4,0.3,1.7,0.4,2,0.7c0.3,0.3,0.4,0.6,0.4,0.9c0,0.6-0.3,1-0.7,1.3
			c-0.4,0.3-1,0.3-1.5,0.3c-1,0-2-0.4-2-1.6H499.2z"/>
		<path fill="#FFFFFF" d="M504.2,465.2c0,1,0.4,1.8,1.4,1.8c0.6,0,1.1-0.3,1.2-1h0.9c0,0.2-0.1,0.7-0.4,1.1
			c-0.2,0.2-0.7,0.7-1.7,0.7c-1.6,0-2.3-1-2.3-2.6c0-1,0.2-1.8,1-2.4c0.5-0.3,1.1-0.4,1.4-0.4c2.2,0,2.2,2,2.2,2.8H504.2z
			 M506.9,464.5c0-0.5-0.1-1.5-1.2-1.5c-0.6,0-1.3,0.4-1.4,1.5H506.9z"/>
		<path fill="#FFFFFF" d="M509.2,466.3h1.1v1.2h-1.1V466.3z"/>
		<path fill="#FFFFFF" d="M371.4,478h-3.1v-1.2l3-4.3h1.1v4.7h1v0.8h-1v1.5h-1V478z M371.4,477.2v-3.6l-2.4,3.6H371.4z"/>
		<path fill="#FFFFFF" d="M381.5,472.3l1.6,5.9l1.7-5.9h1.2l1.6,6l1.6-6h1l-2.1,7.2h-1.1l-1.7-6.2l-1.8,6.2h-1.1l-2-7.2H381.5z"/>
		<path fill="#FFFFFF" d="M391.3,472.3h0.9v2.9c0.3-0.5,0.9-0.8,1.6-0.8c0.5,0,1.3,0.2,1.6,0.8c0.1,0.2,0.2,0.4,0.2,1.2v3.1h-1v-3
			c0-0.4,0-1.4-1.1-1.4c-0.7,0-1,0.4-1.2,0.7c-0.2,0.3-0.2,0.8-0.2,1.1v2.7h-0.9V472.3z"/>
		<path fill="#FFFFFF" d="M397.3,472.3h1.1v1h-1.1V472.3z M397.4,474.5h0.9v5h-0.9V474.5z"/>
		<path fill="#FFFFFF" d="M399.4,474.5h0.9v-1l0.9-0.3v1.3h1.1v0.7h-1.1v3c0,0.2,0,0.7,0.7,0.7c0.2,0,0.4,0,0.4-0.1v0.7
			c-0.2,0-0.4,0.1-0.8,0.1c-0.9,0-1.3-0.2-1.3-1.1v-3.3h-0.9V474.5z"/>
		<path fill="#FFFFFF" d="M404.1,477.2c0,1,0.4,1.8,1.4,1.8c0.6,0,1.1-0.3,1.2-1h0.9c0,0.2-0.1,0.7-0.4,1.1
			c-0.2,0.2-0.7,0.7-1.7,0.7c-1.6,0-2.3-1-2.3-2.6c0-1,0.2-1.8,1-2.4c0.5-0.3,1.1-0.4,1.4-0.4c2.2,0,2.2,2,2.2,2.8H404.1z
			 M406.7,476.5c0-0.5-0.1-1.5-1.2-1.5c-0.6,0-1.3,0.4-1.4,1.5H406.7z"/>
		<path fill="#FFFFFF" d="M411.9,472.3h0.9v7.2h-0.9V472.3z"/>
		<path fill="#FFFFFF" d="M416.8,474.4c2,0,2.5,1.6,2.5,2.6c0,1.5-0.8,2.7-2.5,2.7c-1.7,0-2.5-1.2-2.5-2.6
			C414.2,475.8,414.8,474.4,416.8,474.4z M416.7,479c0.7,0,1.5-0.5,1.5-2c0-1.2-0.6-1.9-1.5-1.9c-0.6,0-1.6,0.4-1.6,1.9
			C415.2,478,415.7,479,416.7,479z"/>
		<path fill="#FFFFFF" d="M421.6,479.9c0,0.6,0.3,1,1.2,1c1.3,0,1.3-0.9,1.3-2.3c-0.4,0.8-1.3,0.8-1.6,0.8c-0.5,0-1.1-0.1-1.5-0.6
			c-0.4-0.5-0.6-1.2-0.6-1.8c0-1.7,1-2.5,2.2-2.5c1,0,1.4,0.5,1.6,0.8l0-0.7h0.9l0,0.9l0,3.1c0,1.2,0,1.7-0.2,2.1
			c-0.4,0.8-1.4,0.9-2.1,0.9c-2,0-2.1-0.9-2.1-1.6H421.6z M423.8,478.2c0.2-0.3,0.3-0.5,0.3-1.4c0-0.6-0.1-1-0.4-1.2
			c-0.2-0.3-0.6-0.4-1.1-0.4c-1.2,0-1.3,1.2-1.3,1.8c0,0.8,0.2,1.8,1.4,1.8C423.3,478.7,423.6,478.5,423.8,478.2z"/>
		<path fill="#FFFFFF" d="M429,474.4c2,0,2.5,1.6,2.5,2.6c0,1.5-0.8,2.7-2.5,2.7c-1.7,0-2.5-1.2-2.5-2.6
			C426.5,475.8,427,474.4,429,474.4z M429,479c0.7,0,1.5-0.5,1.5-2c0-1.2-0.6-1.9-1.5-1.9c-0.6,0-1.6,0.4-1.6,1.9
			C427.4,478,427.9,479,429,479z"/>
		<path fill="#FFFFFF" d="M435.6,472.3h1.1v1h-1.1V472.3z M435.7,474.5h0.9v5h-0.9V474.5z"/>
		<path fill="#FFFFFF" d="M439,478c0,0.4,0.2,0.9,1.1,0.9c0.4,0,0.7-0.1,0.9-0.3c0.1-0.1,0.2-0.3,0.2-0.5c0-0.5-0.3-0.6-1.1-0.8
			c-1-0.2-1.9-0.4-1.9-1.5c0-0.9,0.8-1.5,2-1.5c0.6,0,1.5,0.2,1.8,0.8c0.1,0.3,0.1,0.5,0.1,0.7h-1c0-0.8-0.6-0.8-1-0.8
			c-0.1,0-1,0-1,0.7c0,0.5,0.4,0.6,0.7,0.6c1.4,0.3,1.7,0.4,2,0.7c0.3,0.3,0.4,0.6,0.4,0.9c0,0.6-0.3,1-0.7,1.3
			c-0.4,0.3-1,0.3-1.5,0.3c-1,0-2-0.4-2-1.6H439z"/>
		<path fill="#FFFFFF" d="M448.8,473c-0.2,0-0.4,0-0.5,0c-0.8,0-0.8,0.4-0.8,0.7v0.8h1.2v0.7h-1.2v4.3h-0.9v-4.3h-1v-0.7h1v-0.6
			c0-0.7,0-0.9,0.2-1.2c0.2-0.3,0.6-0.5,1.3-0.5c0.3,0,0.6,0,0.8,0.1V473z"/>
		<path fill="#FFFFFF" d="M451.8,474.4c2,0,2.5,1.6,2.5,2.6c0,1.5-0.8,2.7-2.5,2.7c-1.7,0-2.5-1.2-2.5-2.6
			C449.3,475.8,449.8,474.4,451.8,474.4z M451.7,479c0.7,0,1.5-0.5,1.5-2c0-1.2-0.6-1.9-1.5-1.9c-0.6,0-1.6,0.4-1.6,1.9
			C450.2,478,450.7,479,451.7,479z"/>
		<path fill="#FFFFFF" d="M455.8,475.5c0-0.3,0-0.7,0-1h0.9l0,1c0.2-0.7,0.8-0.9,1.2-1c0.3,0,0.5,0,0.7,0v0.9c0,0-0.1,0-0.2,0
			c-0.1,0-0.2,0-0.3,0c-1.1,0-1.4,0.7-1.4,1.5v2.7h-0.9V475.5z"/>
		<path fill="#FFFFFF" d="M463.3,474.5v3.2c0,0.5,0.1,1.1,1.1,1.1c0.5,0,0.9-0.2,1.2-0.6c0.2-0.3,0.2-0.7,0.2-0.9v-2.8h1v4.1
			c0,0.1,0,0.7,0,0.9h-1l0-0.9c-0.2,0.3-0.5,0.9-1.6,0.9c-1.2,0-1.8-0.7-1.8-1.7v-3.4H463.3z"/>
		<path fill="#FFFFFF" d="M469.1,478c0,0.4,0.2,0.9,1.1,0.9c0.4,0,0.7-0.1,0.9-0.3c0.1-0.1,0.2-0.3,0.2-0.5c0-0.5-0.3-0.6-1.1-0.8
			c-1-0.2-1.9-0.4-1.9-1.5c0-0.9,0.8-1.5,2-1.5c0.6,0,1.5,0.2,1.8,0.8c0.1,0.3,0.1,0.5,0.1,0.7h-1c0-0.8-0.6-0.8-1-0.8
			c-0.1,0-1,0-1,0.7c0,0.5,0.4,0.6,0.7,0.6c1.4,0.3,1.7,0.4,2,0.7c0.3,0.3,0.4,0.6,0.4,0.9c0,0.6-0.3,1-0.7,1.3
			c-0.4,0.3-1,0.3-1.5,0.3c-1,0-2-0.4-2-1.6H469.1z"/>
		<path fill="#FFFFFF" d="M474.1,477.2c0,1,0.4,1.8,1.4,1.8c0.6,0,1.1-0.3,1.2-1h0.9c0,0.2-0.1,0.7-0.4,1.1
			c-0.2,0.2-0.7,0.7-1.7,0.7c-1.6,0-2.3-1-2.3-2.6c0-1,0.2-1.8,1-2.4c0.5-0.3,1.1-0.4,1.4-0.4c2.2,0,2.2,2,2.2,2.8H474.1z
			 M476.7,476.5c0-0.5-0.1-1.5-1.2-1.5c-0.6,0-1.3,0.4-1.4,1.5H476.7z"/>
		<path fill="#FFFFFF" d="M484,474.4c2,0,2.5,1.6,2.5,2.6c0,1.5-0.8,2.7-2.5,2.7c-1.7,0-2.5-1.2-2.5-2.6
			C481.5,475.8,482.1,474.4,484,474.4z M484,479c0.7,0,1.5-0.5,1.5-2c0-1.2-0.6-1.9-1.5-1.9c-0.6,0-1.6,0.4-1.6,1.9
			C482.5,478,482.9,479,484,479z"/>
		<path fill="#FFFFFF" d="M488,475.1l0-0.6h0.9l0,0.8c0.1-0.2,0.5-0.9,1.6-0.9c0.5,0,1.8,0.2,1.8,1.7v3.4h-1v-3.2
			c0-0.3,0-0.6-0.3-0.9c-0.2-0.2-0.6-0.3-0.9-0.3c-0.7,0-1.3,0.5-1.3,1.5v2.9H488V475.1z"/>
		<path fill="#FFFFFF" d="M500.3,472.3h0.9v6.4c0,0.1,0,0.5,0,0.8h-0.9l0-0.8c-0.1,0.1-0.2,0.4-0.5,0.5c-0.4,0.3-0.9,0.4-1.2,0.4
			c-0.7,0-2.2-0.3-2.2-2.5c0-1.9,1.1-2.7,2.3-2.7c1.1,0,1.4,0.6,1.6,0.8V472.3z M500,475.5c-0.2-0.3-0.6-0.5-1.1-0.5
			c-1.4,0-1.4,1.7-1.4,2c0,0.9,0.2,1.9,1.4,1.9c1.5,0,1.5-1.6,1.5-2C500.4,476.2,500.2,475.8,500,475.5z"/>
		<path fill="#FFFFFF" d="M506,479.5c-0.1-0.2-0.1-0.5-0.1-0.8c-0.4,0.8-1.1,0.9-1.5,0.9c-1.1,0-1.8-0.7-1.8-1.5
			c0-0.4,0.1-1,0.9-1.5c0.5-0.3,1.3-0.3,1.7-0.3c0.2,0,0.4,0,0.7,0c0-0.6,0-0.9-0.2-1.1c-0.2-0.2-0.6-0.3-0.9-0.3
			c-0.9,0-1,0.6-1,0.8h-0.9c0-0.3,0.1-0.6,0.4-1c0.4-0.4,1.1-0.5,1.6-0.5c0.7,0,1.5,0.2,1.8,0.7c0.2,0.3,0.2,0.5,0.2,0.8l0,2.4
			c0,0.1,0,0.8,0.1,1.3H506z M505.4,477c-0.4,0-1.8,0-1.8,1c0,0.3,0.2,0.9,1,0.9c0.5,0,0.8-0.2,1.1-0.5c0.2-0.3,0.2-0.6,0.2-1.3
			C505.7,477.1,505.6,477,505.4,477z"/>
		<path fill="#FFFFFF" d="M508.6,475.5c0-0.3,0-0.7,0-1h0.9l0,1c0.2-0.7,0.8-0.9,1.2-1c0.3,0,0.5,0,0.7,0v0.9c0,0-0.1,0-0.2,0
			c-0.1,0-0.2,0-0.3,0c-1.1,0-1.4,0.7-1.4,1.5v2.7h-0.9V475.5z"/>
		<path fill="#FFFFFF" d="M512.3,472.2h0.9v4.3l1.9-2h1.2l-2.1,2.1l2.2,2.9h-1.2l-2-2.7v2.7h-0.9V472.2z"/>
		<path fill="#FFFFFF" d="M521.1,475.2c0.1-0.2,0.5-0.9,1.6-0.9c0.5,0,1.1,0.1,1.6,0.6c0.2,0.3,0.6,0.8,0.6,1.9c0,1-0.2,1.5-0.5,1.8
			c-0.4,0.6-1.1,0.9-1.8,0.9c-0.2,0-0.7,0-1.1-0.3c-0.3-0.2-0.4-0.4-0.5-0.5l0,0.8h-0.9l0-0.9v-6.3h0.9V475.2z M522.6,475
			c-1.4,0-1.4,1.7-1.4,2c0,0.3,0,1.9,1.4,1.9c1.2,0,1.4-1.1,1.4-1.9C524,476.5,523.9,475,522.6,475z"/>
		<path fill="#FFFFFF" d="M529.4,479.5c-0.1-0.2-0.1-0.5-0.1-0.8c-0.4,0.8-1.1,0.9-1.5,0.9c-1.1,0-1.8-0.7-1.8-1.5
			c0-0.4,0.1-1,0.9-1.5c0.5-0.3,1.3-0.3,1.7-0.3c0.2,0,0.4,0,0.7,0c0-0.6,0-0.9-0.2-1.1c-0.2-0.2-0.6-0.3-0.9-0.3
			c-0.9,0-1,0.6-1,0.8h-0.9c0-0.3,0.1-0.6,0.4-1c0.4-0.4,1.1-0.5,1.6-0.5c0.7,0,1.5,0.2,1.8,0.7c0.2,0.3,0.2,0.5,0.2,0.8l0,2.4
			c0,0.1,0,0.8,0.1,1.3H529.4z M528.7,477c-0.4,0-1.8,0-1.8,1c0,0.3,0.2,0.9,1,0.9c0.5,0,0.8-0.2,1.1-0.5c0.2-0.3,0.2-0.6,0.2-1.3
			C529.1,477.1,528.9,477,528.7,477z"/>
		<path fill="#FFFFFF" d="M534.7,476.1c0-0.2-0.1-1-1-1c-1.3,0-1.3,1.5-1.3,1.9c0,1,0.2,2,1.2,2c0.8,0,1.1-0.6,1.1-1.1h0.9
			c-0.1,1-0.8,1.8-2,1.8c-0.3,0-1.1-0.1-1.6-0.6c-0.3-0.4-0.6-0.9-0.6-1.9c0-2.1,1.3-2.7,2.3-2.7c0.3,0,1.1,0.1,1.5,0.6
			c0.4,0.4,0.4,0.8,0.4,1.1H534.7z"/>
		<path fill="#FFFFFF" d="M536.3,472.2h0.9v4.3l1.9-2h1.2l-2.1,2.1l2.2,2.9h-1.2l-2-2.7v2.7h-0.9V472.2z"/>
		<path fill="#FFFFFF" d="M542.5,479.9c0,0.6,0.3,1,1.2,1c1.3,0,1.3-0.9,1.3-2.3c-0.4,0.8-1.3,0.8-1.6,0.8c-0.5,0-1.1-0.1-1.5-0.6
			c-0.4-0.5-0.6-1.2-0.6-1.8c0-1.7,1-2.5,2.2-2.5c1,0,1.4,0.5,1.6,0.8l0-0.7h0.9l0,0.9l0,3.1c0,1.2,0,1.7-0.2,2.1
			c-0.4,0.8-1.4,0.9-2.1,0.9c-2,0-2.1-0.9-2.1-1.6H542.5z M544.6,478.2c0.2-0.3,0.3-0.5,0.3-1.4c0-0.6-0.1-1-0.4-1.2
			c-0.2-0.3-0.6-0.4-1.1-0.4c-1.2,0-1.3,1.2-1.3,1.8c0,0.8,0.2,1.8,1.4,1.8C544.1,478.7,544.4,478.5,544.6,478.2z"/>
		<path fill="#FFFFFF" d="M547.7,475.5c0-0.3,0-0.7,0-1h0.9l0,1c0.2-0.7,0.8-0.9,1.2-1c0.3,0,0.5,0,0.7,0v0.9c0,0-0.1,0-0.2,0
			c-0.1,0-0.2,0-0.3,0c-1.1,0-1.4,0.7-1.4,1.5v2.7h-0.9V475.5z"/>
		<path fill="#FFFFFF" d="M553.7,474.4c2,0,2.5,1.6,2.5,2.6c0,1.5-0.8,2.7-2.5,2.7c-1.7,0-2.5-1.2-2.5-2.6
			C551.2,475.8,551.8,474.4,553.7,474.4z M553.7,479c0.7,0,1.5-0.5,1.5-2c0-1.2-0.6-1.9-1.5-1.9c-0.6,0-1.6,0.4-1.6,1.9
			C552.2,478,552.6,479,553.7,479z"/>
		<path fill="#FFFFFF" d="M558.5,474.5v3.2c0,0.5,0.1,1.1,1.1,1.1c0.5,0,0.9-0.2,1.2-0.6c0.2-0.3,0.2-0.7,0.2-0.9v-2.8h1v4.1
			c0,0.1,0,0.7,0,0.9h-1l0-0.9c-0.2,0.3-0.5,0.9-1.6,0.9c-1.2,0-1.8-0.7-1.8-1.7v-3.4H558.5z"/>
		<path fill="#FFFFFF" d="M563.8,475.1l0-0.6h0.9l0,0.8c0.1-0.2,0.5-0.9,1.6-0.9c0.5,0,1.8,0.2,1.8,1.7v3.4h-1v-3.2
			c0-0.3,0-0.6-0.3-0.9c-0.2-0.2-0.6-0.3-0.9-0.3c-0.7,0-1.3,0.5-1.3,1.5v2.9h-0.9V475.1z"/>
		<path fill="#FFFFFF" d="M573.4,472.3h0.9v6.4c0,0.1,0,0.5,0,0.8h-0.9l0-0.8c-0.1,0.1-0.2,0.4-0.5,0.5c-0.4,0.3-0.9,0.4-1.2,0.4
			c-0.7,0-2.2-0.3-2.2-2.5c0-1.9,1.1-2.7,2.3-2.7c1.1,0,1.4,0.6,1.6,0.8V472.3z M573,475.5c-0.2-0.3-0.6-0.5-1.1-0.5
			c-1.4,0-1.4,1.7-1.4,2c0,0.9,0.2,1.9,1.4,1.9c1.5,0,1.5-1.6,1.5-2C573.4,476.2,573.2,475.8,573,475.5z"/>
		<path fill="#FFFFFF" d="M576.5,478c0,0.4,0.2,0.9,1.1,0.9c0.4,0,0.7-0.1,0.9-0.3c0.1-0.1,0.2-0.3,0.2-0.5c0-0.5-0.3-0.6-1.1-0.8
			c-1-0.2-1.9-0.4-1.9-1.5c0-0.9,0.8-1.5,2-1.5c0.6,0,1.5,0.2,1.8,0.8c0.1,0.3,0.1,0.5,0.1,0.7h-1c0-0.8-0.6-0.8-1-0.8
			c-0.1,0-1,0-1,0.7c0,0.5,0.4,0.6,0.7,0.6c1.4,0.3,1.7,0.4,2,0.7c0.3,0.3,0.4,0.6,0.4,0.9c0,0.6-0.3,1-0.7,1.3
			c-0.4,0.3-1,0.3-1.5,0.3c-1,0-2-0.4-2-1.6H576.5z"/>
		<path fill="#FFFFFF" d="M580.9,478.3h1.1v1.2h-1.1V478.3z"/>
	</g>
</g>
<g id="Logos">
	<g>
		<g>
			<path d="M230,208.5c0-5.7-4.7-10.4-10.4-10.4c-5.7,0-10.4,4.7-10.4,10.4c0,11.5-9.4,20.8-20.8,20.8c-5.7,0-10.4,4.7-10.4,10.4
				c0,5.7,4.7,10.4,10.4,10.4c13.3,0,20.8,11.3,20.8,22.5v0.8c0,5.7,4.7,10.4,10.4,10.4c5.7,0,10.4-4.7,10.4-10.4v-0.8
				c0-12.9-4.2-24.3-13.8-32.9C225.2,232.2,230,220.9,230,208.5L230,208.5z"/>
			<path d="M89.2,273.5c0,5.7,4.7,10.4,10.4,10.4c5.7,0,10.4-4.7,10.4-10.4v-33.8c0-11.5,9.4-20.8,20.8-20.8
				c11.5,0,20.8,9.4,20.8,20.8v33.8c0,5.7,4.7,10.4,10.4,10.4c5.7,0,10.4-4.7,10.4-10.4v-33.8c0-23.1-18.7-41.7-41.7-41.7
				c-23,0-41.7,18.6-41.7,41.7V273.5z"/>
			<path d="M239.2,273.5c0,5.7,4.7,10.4,10.4,10.4c5.7,0,10.4-4.7,10.4-10.4v-0.4v-64.6c0-5.7-4.7-10.4-10.4-10.4
				c-5.7,0-10.4,4.7-10.4,10.4V273.5z"/>
			<path d="M41.7,198.1c-23,0-41.7,18.7-41.7,41.7c0,23,18.7,41.7,41.7,41.7c7.7,0,14.9-2.1,21.2-5.7c1,4.7,5.1,8.2,10.1,8.2
				c5.7,0,10.4-4.7,10.4-10.4v-33.8C83.4,216.7,64.7,198.1,41.7,198.1z M41.7,260.6c-11.5,0-20.8-9.4-20.8-20.8
				c0-11.5,9.4-20.8,20.8-20.8c11.5,0,20.8,9.4,20.8,20.8C62.5,251.2,53.2,260.6,41.7,260.6z"/>
		</g>
		<path d="M273.7,283.9v-8.3h3v-1.4H269v1.4h3v8.3H273.7z M286.6,283.9v-9.8h-2.2l-2.3,7.7l-2.4-7.7h-2.2v9.8h1.6l-0.1-6.1
			c0-0.7,0-1.3-0.1-1.9c0.2,0.5,0.3,1.1,0.5,1.6l1.9,6.4h1.4l1.9-6.4c0.2-0.5,0.3-1.1,0.5-1.7c-0.1,0.6-0.1,1.3-0.1,2l-0.1,6.1
			H286.6z"/>
	</g>
	<g>
		<g>
			<path fill="#FFFFFF" d="M598.5,10.5c0-5.7-4.7-10.4-10.4-10.4c-5.7,0-10.4,4.7-10.4,10.4c0,11.5-9.4,20.8-20.8,20.8
				c-5.7,0-10.4,4.7-10.4,10.4c0,5.7,4.7,10.4,10.4,10.4c13.3,0,20.8,11.3,20.8,22.5v0.8c0,5.7,4.7,10.4,10.4,10.4
				c5.7,0,10.4-4.7,10.4-10.4v-0.8c0-12.9-4.2-24.3-13.8-32.9C593.7,34.2,598.5,22.9,598.5,10.5L598.5,10.5z"/>
			<path fill="#FFFFFF" d="M457.7,75.5c0,5.7,4.7,10.4,10.4,10.4c5.7,0,10.4-4.7,10.4-10.4V41.7c0-11.5,9.4-20.8,20.8-20.8
				c11.5,0,20.8,9.4,20.8,20.8v33.8c0,5.7,4.7,10.4,10.4,10.4c5.7,0,10.4-4.7,10.4-10.4V41.7c0-23.1-18.7-41.7-41.7-41.7
				c-23,0-41.7,18.6-41.7,41.7V75.5z"/>
			<path fill="#FFFFFF" d="M607.7,75.5c0,5.7,4.7,10.4,10.4,10.4c5.7,0,10.4-4.7,10.4-10.4v-0.4V10.5c0-5.7-4.7-10.4-10.4-10.4
				c-5.7,0-10.4,4.7-10.4,10.4V75.5z"/>
			<path fill="#FFFFFF" d="M410.2,0.1c-23,0-41.7,18.7-41.7,41.7c0,23,18.7,41.7,41.7,41.7c7.7,0,14.9-2.1,21.2-5.7
				c1,4.7,5.1,8.2,10.1,8.2c5.7,0,10.4-4.7,10.4-10.4V41.7C451.9,18.7,433.2,0.1,410.2,0.1z M410.2,62.6c-11.5,0-20.8-9.4-20.8-20.8
				c0-11.5,9.4-20.8,20.8-20.8c11.5,0,20.8,9.4,20.8,20.8C431,53.2,421.6,62.6,410.2,62.6z"/>
		</g>
		<path fill="#FFFFFF" d="M642.2,85.9v-8.3h3v-1.4h-7.7v1.4h3v8.3H642.2z M655,85.9v-9.8h-2.2l-2.3,7.7l-2.4-7.7h-2.2v9.8h1.6
			l-0.1-6.1c0-0.7,0-1.3-0.1-1.9c0.2,0.5,0.3,1.1,0.5,1.6l1.9,6.4h1.4l1.9-6.4c0.2-0.5,0.3-1.1,0.5-1.7c-0.1,0.6-0.1,1.3-0.1,2
			l-0.1,6.1H655z"/>
	</g>
	<g>
		<g>
			<path fill="#0081C3" d="M230,10.5c0-5.7-4.7-10.4-10.4-10.4c-5.7,0-10.4,4.7-10.4,10.4c0,11.5-9.4,20.8-20.8,20.8
				c-5.7,0-10.4,4.7-10.4,10.4c0,5.7,4.7,10.4,10.4,10.4c13.3,0,20.8,11.3,20.8,22.5v0.8c0,5.7,4.7,10.4,10.4,10.4
				c5.7,0,10.4-4.7,10.4-10.4v-0.8c0-12.9-4.2-24.3-13.8-32.9C225.2,34.2,230,22.9,230,10.5L230,10.5z"/>
			<path fill="#0081C3" d="M89.2,75.5c0,5.7,4.7,10.4,10.4,10.4c5.7,0,10.4-4.7,10.4-10.4V41.8c0-11.5,9.4-20.8,20.8-20.8
				c11.5,0,20.8,9.4,20.8,20.8v33.8c0,5.7,4.7,10.4,10.4,10.4c5.7,0,10.4-4.7,10.4-10.4V41.8c0-23.1-18.7-41.7-41.7-41.7
				c-23,0-41.7,18.6-41.7,41.7V75.5z"/>
			<path fill="#0081C3" d="M239.2,75.5c0,5.7,4.7,10.4,10.4,10.4c5.7,0,10.4-4.7,10.4-10.4v-0.4V10.5c0-5.7-4.7-10.4-10.4-10.4
				c-5.7,0-10.4,4.7-10.4,10.4V75.5z"/>
			<path fill="#0081C3" d="M41.7,0.1C18.7,0.1,0,18.7,0,41.8c0,23,18.7,41.7,41.7,41.7c7.7,0,14.9-2.1,21.2-5.7
				c1,4.7,5.1,8.2,10.1,8.2c5.7,0,10.4-4.7,10.4-10.4V41.8C83.4,18.7,64.7,0.1,41.7,0.1z M41.7,62.6c-11.5,0-20.8-9.4-20.8-20.8
				c0-11.5,9.4-20.8,20.8-20.8c11.5,0,20.8,9.4,20.8,20.8C62.5,53.2,53.2,62.6,41.7,62.6z"/>
		</g>
		<path fill="#0081C3" d="M273.7,85.9v-8.3h3v-1.4H269v1.4h3v8.3H273.7z M286.6,85.9v-9.8h-2.2l-2.3,7.7l-2.4-7.7h-2.2v9.8h1.6
			l-0.1-6.1c0-0.7,0-1.3-0.1-1.9c0.2,0.5,0.3,1.1,0.5,1.6l1.9,6.4h1.4l1.9-6.4c0.2-0.5,0.3-1.1,0.5-1.7c-0.1,0.6-0.1,1.3-0.1,2
			l-0.1,6.1H286.6z"/>
	</g>
	<g>
		<g>
			<path fill="#7E7D7E" d="M230,406.5c0-5.7-4.7-10.4-10.4-10.4c-5.7,0-10.4,4.7-10.4,10.4c0,11.5-9.4,20.8-20.8,20.8
				c-5.7,0-10.4,4.7-10.4,10.4c0,5.7,4.7,10.4,10.4,10.4c13.3,0,20.8,11.3,20.8,22.5v0.8c0,5.7,4.7,10.4,10.4,10.4
				c5.7,0,10.4-4.7,10.4-10.4v-0.8c0-12.9-4.2-24.3-13.8-32.9C225.2,430.2,230,418.9,230,406.5L230,406.5z"/>
			<path fill="#7E7D7E" d="M89.2,471.5c0,5.7,4.7,10.4,10.4,10.4c5.7,0,10.4-4.7,10.4-10.4v-33.8c0-11.5,9.4-20.8,20.8-20.8
				c11.5,0,20.8,9.4,20.8,20.8v33.8c0,5.7,4.7,10.4,10.4,10.4c5.7,0,10.4-4.7,10.4-10.4v-33.8c0-23.1-18.7-41.7-41.7-41.7
				c-23,0-41.7,18.6-41.7,41.7V471.5z"/>
			<path fill="#7E7D7E" d="M239.2,471.5c0,5.7,4.7,10.4,10.4,10.4c5.7,0,10.4-4.7,10.4-10.4v-0.4v-64.6c0-5.7-4.7-10.4-10.4-10.4
				c-5.7,0-10.4,4.7-10.4,10.4V471.5z"/>
			<path fill="#7E7D7E" d="M41.7,396.1c-23,0-41.7,18.7-41.7,41.7c0,23,18.7,41.7,41.7,41.7c7.7,0,14.9-2.1,21.2-5.7
				c1,4.7,5.1,8.2,10.1,8.2c5.7,0,10.4-4.7,10.4-10.4v-33.8C83.4,414.7,64.7,396.1,41.7,396.1z M41.7,458.6
				c-11.5,0-20.8-9.4-20.8-20.8c0-11.5,9.4-20.8,20.8-20.8c11.5,0,20.8,9.4,20.8,20.8C62.5,449.2,53.2,458.6,41.7,458.6z"/>
		</g>
		<path fill="#7E7D7E" d="M273.7,481.9v-8.3h3v-1.4H269v1.4h3v8.3H273.7z M286.6,481.9v-9.8h-2.2l-2.3,7.7l-2.4-7.7h-2.2v9.8h1.6
			l-0.1-6.1c0-0.7,0-1.3-0.1-1.9c0.2,0.5,0.3,1.1,0.5,1.6l1.9,6.4h1.4l1.9-6.4c0.2-0.5,0.3-1.1,0.5-1.7c-0.1,0.6-0.1,1.3-0.1,2
			l-0.1,6.1H286.6z"/>
	</g>
</g>
</svg>
