<?xml version="1.0" encoding="utf-8"?>
<!-- Generator: Adobe Illustrator 18.1.1, SVG Export Plug-In . SVG Version: 6.00 Build 0)  -->
<svg version="1.1" id="Layer_1" xmlns="http://www.w3.org/2000/svg" xmlns:xlink="http://www.w3.org/1999/xlink" x="0px" y="0px"
	 viewBox="0 332 612 127.9" enable-background="new 0 332 612 127.9" xml:space="preserve">
<path fill="#343434" d="M46.8,396c0-8.3,6.7-15.3,15.3-15.3c8.3,0,15.3,6.7,15.3,15.3c0,8.6-6.7,15.3-15.3,15.3S46.8,404.6,46.8,396
	z M62.1,332c-30,0-55.1,20.5-62.1,48c0,0.3,0,0.6,0,0.6c0,1.8,1.2,3.1,3.1,3.1h25.7c1.2,0,2.1-0.6,2.8-1.8l0,0
	c5.2-11.6,16.8-19.6,30.6-19.6c18.4,0,33.7,15,33.7,33.7c0,18.7-15,33.7-33.7,33.7c-13.5,0-25.1-8-30.6-19.6l0,0
	c-0.6-0.9-1.5-1.8-2.8-1.8H3.1c-1.8,0-3.1,1.2-3.1,3.1c0,0.3,0,0.3,0,0.6c7,27.5,32.1,48,62.1,48c35.5,0,64-28.8,64-64
	C126.1,360.5,97.3,332,62.1,332z M229.5,411h-8.6c-0.6,0-1.2,0.3-1.5,0.6c-5.2,7.3-13.5,12.2-23.3,12.2c-15.6,0-28.2-12.5-28.2-28.2
	s12.5-28.2,28.2-28.2c9.8,0,18.4,4.9,23.3,12.2c0.3,0.3,0.9,0.6,1.5,0.6h8.6c0.9,0,1.8-0.9,1.8-1.8c0-0.3,0-0.6-0.3-0.9
	c-6.4-12.9-19.9-21.7-35.2-21.7c-21.7,0-39.5,17.7-39.5,39.5s17.7,39.5,39.5,39.5c15.3,0,28.8-8.9,35.2-21.7c0-0.3,0.3-0.6,0.3-0.9
	C231.3,411.9,230.4,411,229.5,411z M255.8,343.4c0,4.3-3.4,7.6-7.7,7.6c-4.3,0-7.6-3.4-7.6-7.6c0-4.3,3.4-7.6,7.6-7.6
	C252.4,336,255.8,339.4,255.8,343.4z M254,431.5v-73.1h-11.3v73.1c0,0.9,0.9,1.8,1.8,1.8h7.6C253.1,433.6,254,432.7,254,431.5z
	 M302.6,356.5c-11.3,0.6-20.5,5.8-26.3,14.4v-10.4c0-0.9-0.9-1.8-1.8-1.8h-7.6c-0.9,0-1.8,0.9-1.8,1.8l0,0v71.3
	c0,0.9,0.9,1.8,1.8,1.8h7.6c0.9,0,1.8-0.9,1.8-1.8V396c0-15,11.6-27.2,26.3-28.2c0.9,0,1.8-0.9,1.8-1.8v-7.6
	C304.5,357.4,303.6,356.5,302.6,356.5z M377.3,411h-8.6c-0.6,0-1.2,0.3-1.5,0.6c-5.2,7.3-13.5,12.2-23.3,12.2
	c-15.6,0-28.2-12.5-28.2-28.2s12.5-28.2,28.2-28.2c9.8,0,18.4,4.9,23.3,12.2c0.3,0.3,0.9,0.6,1.5,0.6h8.6c0.9,0,1.8-0.9,1.8-1.8
	c0-0.3,0-0.6-0.3-0.9c-6.4-12.9-19.9-21.7-35.2-21.7c-21.7,0-39.5,17.7-39.5,39.5s17.7,39.5,39.5,39.5c15.3,0,28.8-8.9,35.2-21.7
	c0-0.3,0.3-0.6,0.3-0.9C379.1,411.9,378.5,411,377.3,411z M399.9,334.2h-7.6c-0.9,0-1.8,0.9-1.8,1.8v95.8c0,0.9,0.9,1.8,1.8,1.8h7.6
	c0.9,0,1.8-0.9,1.8-1.8V336C401.8,334.8,400.9,334.2,399.9,334.2z M452.3,356.5c-21.7,0-39.5,17.7-39.5,39.5
	c0,21.7,17.7,39.5,39.5,39.5c15.3,0,28.8-8.9,35.2-21.7c0-0.3,0.3-0.6,0.3-0.9c0-0.9-0.9-1.8-1.8-1.8h-8.6c-0.6,0-1.2,0.3-1.5,0.9
	c-5.2,7.3-13.5,12.2-23.3,12.2c-14.4,0-26-10.7-27.8-24.5h65.5c0.9,0,1.8-0.9,1.8-1.8c0-0.6,0-1.2,0-1.8
	C491.7,374.3,474.3,356.5,452.3,356.5z M425.3,388.4c3.4-11.9,14.1-20.5,27.2-20.5c12.9,0,23.9,8.9,27.2,20.5H425.3z M600.7,332.4
	c-6.1,0-11.3,4.9-11.3,11.3c0,6.1,4.9,11.3,11.3,11.3c6.1,0,11.3-4.9,11.3-11.3C612,337.2,607.1,332.4,600.7,332.4z M610.2,358.4
	v73.1c0,0.9-0.9,1.8-1.8,1.8h-15c-0.9,0-1.8-0.9-1.8-1.8v-73.1H610.2z M542.5,435.5c18.4,0,33.7-12.5,38.2-29.7v-0.3
	c0-0.9-0.9-1.8-1.8-1.8H563c-0.6,0-1.5,0.3-1.8,1.2l0,0c-3.4,7-10.4,11.9-18.7,11.9c-11.3,0-20.5-9.2-20.5-20.5s9.2-20.5,20.5-20.5
	c8.3,0,15.6,4.9,18.7,11.9l0,0c0.3,0.6,0.9,1.2,1.8,1.2H579c0.9,0,1.8-0.9,1.8-1.8v-0.3c-4.3-17.1-19.9-29.7-38.2-29.7
	c-21.7,0-39.5,17.7-39.5,39.5C503.1,417.7,520.8,435.5,542.5,435.5z"/>
</svg>
