<?xml version="1.0" encoding="UTF-8" standalone="no"?>
<svg
   xmlns:dc="http://purl.org/dc/elements/1.1/"
   xmlns:cc="http://creativecommons.org/ns#"
   xmlns:rdf="http://www.w3.org/1999/02/22-rdf-syntax-ns#"
   xmlns:svg="http://www.w3.org/2000/svg"
   xmlns="http://www.w3.org/2000/svg"
   version="1.1"
   id="Layer_1"
   x="0px"
   y="0px"
   viewBox="0 0 679.7 325.8"
   width="679.7"
   height="325.8"
   xml:space="preserve"><g
     id="g5"><g
       id="g7"><path
         style="fill:#212121;fill-opacity:1"
         d="M 17.6,191.4 17.6,10 C 17.6,4 14.5,0 8.7,0 3.1,0 0,4 0,10 l 0,188.7 c 0,6.4 3.1,9.3 9.3,9.3 l 100.8,0 c 6,0 10,-2.5 10,-8.3 0,-5.8 -3.9,-8.3 -10,-8.3 l -92.5,0 z"
         id="path9" /><path
         style="fill:#212121;fill-opacity:1"
         d="m 171.3,17.4 99.8,0 c 6,0 10,-2.5 10,-8.3 0,-5.8 -3.9,-8.3 -10,-8.3 L 163,0.8 c -6.2,0 -9.3,2.9 -9.3,9.3 l 0,188.5 c 0,6.4 3.1,9.3 9.3,9.3 l 108.1,0 c 6,0 10,-2.5 10,-8.3 0,-5.8 -3.9,-8.3 -10,-8.3 l -99.8,0 0,-173.9 z"
         id="path11" /><path
         style="fill:#212121;fill-opacity:1"
         d="m 406.9,25.5 76.2,175.8 c 1.7,4.1 4.6,7.5 8.5,7.5 4.6,0 12.2,-4.8 8.3,-13.5 l -82,-187 C 416.2,4.8 413.8,0 407.1,0 400.5,0 398,4.8 396.3,8.3 l -82,187 c -3.9,8.7 3.7,13.5 8.3,13.5 3.9,0 6.8,-3.3 8.5,-7.5 L 406.9,25.5 Z"
         id="path13" /><path
         style="fill:#212121;fill-opacity:1"
         d="m 380,130.3 c 0,5.8 3.9,8.3 9.9,8.3 l 34.4,0 c 6,0 10,-2.5 10,-8.3 0,-5.8 -3.9,-8.3 -10,-8.3 l -34.4,0 c -6,0 -9.9,2.5 -9.9,8.3"
         id="path15" /><path
         style="fill:#212121;fill-opacity:1"
         d="m 558.5,17.4 48.1,0 c 13.9,0 26.1,0.2 36.4,6 11.6,6.4 18.6,18.9 18.6,33.1 0,14.3 -7,26.7 -18.6,33.1 -10.3,5.6 -22.6,6 -36.4,6 l -21.7,0 c -6,0 -10,2.5 -10,8.3 0,5.8 3.9,8.3 10,8.3 l 20.7,0 c 13.1,0 30,0 45.6,-8.3 17.6,-9.3 28.6,-25.7 28.6,-47.4 C 679.8,35.6 669.5,18.6 651.4,9.1 635.9,0.8 618.7,0.8 605.6,0.8 l -55.3,0 c -6.2,0 -9.3,2.9 -9.3,9.3 l 0,188.7 c 0,6 3.1,9.9 8.9,9.9 5.6,0 8.7,-3.9 8.7,-9.9 l 0,-181.4 z"
         id="path17" /></g><path
       style="fill:#5eaa02;fill-opacity:1"
       d="m 623.1,283.1 28.9,37.7 c 2,2.6 3.4,4 5.7,4 3,0 3.9,-2.2 3.9,-4.4 l 0,-44.2 c 0,-2.3 -1.3,-3.9 -3.5,-3.9 -2.2,0 -3.5,1.6 -3.5,3.9 l 0.1,37.1 -28.9,-37.7 c -1.6,-2.1 -2.8,-3.3 -5.3,-3.3 -3.4,0 -4.4,2.3 -4.4,4.4 l 0,44.2 c 0,2.3 1.2,3.9 3.5,3.9 2.2,0 3.5,-1.6 3.5,-3.9 l 0,-37.8 z M 527,298.5 c 0,11.4 -7.8,20.7 -19.5,20.7 -11.6,0 -19.5,-9.3 -19.5,-20.7 0,-11.4 7.8,-20.7 19.5,-20.7 11.7,0 19.5,9.3 19.5,20.7 m -46.5,0 c 0,15.3 11.4,27.3 27,27.3 15.6,0 27,-11.9 27,-27.3 0,-15.4 -11.4,-27.3 -27,-27.3 -15.6,0.1 -27,12 -27,27.3 m -85.1,26.3 c 2.2,0 3.5,-1.6 3.5,-3.9 l 0,-44.7 c 0,-2.3 -1.3,-3.9 -3.5,-3.9 -2.3,0 -3.6,1.6 -3.6,3.9 l 0,44.7 c 0,2.3 1.3,3.9 3.6,3.9 m -110.6,-3.9 c 0,2.3 1.3,3.9 3.6,3.9 2.2,0 3.5,-1.6 3.5,-3.9 l 0,-41.8 16.4,0 c 2.2,0 3.6,-1.1 3.6,-3.3 0,-2.1 -1.4,-3.3 -3.6,-3.3 l -39.8,0 c -2.2,0 -3.6,1.2 -3.6,3.3 0,2.1 1.4,3.3 3.6,3.3 l 16.4,0 0,41.8 z M 183.4,298.5 c 0,11.4 -7.8,20.7 -19.5,20.7 -11.6,0 -19.5,-9.3 -19.5,-20.7 0,-11.4 7.8,-20.7 19.5,-20.7 11.7,0 19.5,9.3 19.5,20.7 m -46.5,0 c 0,15.3 11.4,27.3 27,27.3 15.6,0 27,-11.9 27,-27.3 0,-15.4 -11.4,-27.3 -27,-27.3 -15.6,0.1 -27,12 -27,27.3 M 27.7,307.3 11.6,277.7 c -2,-3.7 -3.6,-5.5 -6.9,-5.5 -4,0 -4.8,2.7 -4.8,4.8 l 0,43.9 c 0,2.3 1.2,3.9 3.5,3.9 2.2,0 3.5,-1.6 3.5,-3.9 l -0.1,-38.3 16.5,31 c 1.1,2.1 2.2,3.4 4.2,3.4 2,0 3.2,-1.3 4.3,-3.4 l 16.5,-31 -0.1,38.3 c 0,2.3 1.3,3.9 3.5,3.9 2.3,0 3.5,-1.6 3.5,-3.9 l 0,-43.9 c 0,-2.1 -0.8,-4.8 -4.8,-4.8 -3.3,0 -4.7,1.8 -6.7,5.5 l -16,29.6 z"
       id="path19" /><path
       style="fill:#5eaa02;fill-opacity:1"
       d="m 187.6,104 c 0,5.8 3.9,8.3 9.9,8.3 l 44.1,0 c 6,0 9.9,-2.5 9.9,-8.3 0,-5.8 -3.9,-8.3 -9.9,-8.3 l -44.1,0 c -6,0 -9.9,2.5 -9.9,8.3"
       id="path21" /></g></svg>