<svg width="18" height="24" viewBox="0 0 66 90" xmlns="http://www.w3.org/2000/svg"><path d="M65.586 62.977c-1.038-16.362-16.236-17.45-17.524-17.51l-.098-.007c.414.2.768.423 1.148.638 2.688 1.732 4.924 4 6.494 6.64 1.626 2.738 2.554 5.862 2.554 9.184 0 4.126-1.432 7.945-3.858 11.09-3.89 5.047-10.346 8.355-17.668 8.355-11.786 0-21.346-8.558-21.512-19.17.364-5.54 2.982-10.475 7-13.91.63-.62 1.988-1.77 3.576-3.093 1.134-.944 2.382-1.972 3.588-2.97.49-.403.972-.802 1.434-1.186.422-.35.976-.81 1.608-1.353.514-.438.974-.836 1.348-1.168.256-.23.478-.435.648-.6.09-.09.174-.18.26-.273.016-.018.034-.034.05-.05.116-.113.232-.224.348-.34.138-.123.266-.254.398-.382.322-.313.636-.634.93-.97.764-.815 1.528-1.696 2.25-2.627.776-1.08 1.39-2.185 1.9-3.29 2.692-5.85 2.034-11.738 1.706-14.077-.65-3.598-1.774-6.454-3.12-8.693C35.806 1.825 31.284 0 29.022 0c.14.13 1.314 1.266 2.158 3.122.49 1.075.868 2.392.868 3.9 0 2.957-1.046 5.666-2.408 7.905-.61 1.003-1.282 1.91-1.952 2.704v-.005c-.67.863-1.404 1.722-2.174 2.57-.954 1.05-1.964 2.085-2.99 3.09-1.272 1.244-3.56 2.884-6.202 5.012-.656.528-1.338 1.098-2.03 1.687C10.32 33.38 5.954 37.81 3.106 43.567 1.222 47.372 0 51.753 0 56.79c0 18.05 15.34 30.596 30.518 32.15.11.012.22.022.328.032.372.035.744.062 1.12.084l.398.02.188.007c.066.004.132.006.198.008.308.01.616.017.926.017l.168-.002.118.002c.174 0 .346-.01.518-.014.04 0 .082 0 .122-.002.034 0 .068 0 .102-.003.208-.006.416-.02.626-.03l-.004.007c.96 0 1.896-.04 2.808-.114 16.158-1.145 27.51-12.083 27.51-24.178 0-.62-.024-1.214-.058-1.795" class="mk1-logo mk1-logo-path" fill="#4a4a4a" fill-rule="evenodd"></path></svg>