<?xml version="1.0" encoding="UTF-8" standalone="no"?>
<svg width="669px" height="137px" viewBox="0 0 669 137" version="1.1" xmlns="http://www.w3.org/2000/svg" xmlns:xlink="http://www.w3.org/1999/xlink">
    <!-- Generator: Sketch 40 (33762) - http://www.bohemiancoding.com/sketch -->
    <title>horizontal_lockup</title>
    <desc>Created with Sketch.</desc>
    <defs>
        <polygon id="path-1" points="147.301885 0.508558696 0 0.508558696 0 130.34432 147.301885 130.34432 147.301885 0.508558696"></polygon>
        <polygon id="path-3" points="147.030054 0.243525529 0 0.243525529 0 129.857418 660.821897 129.857418 660.821897 0.243525529 147.030054 0.243525529 0.00016342628 0.242974161 0.00016342628 129.856867 147.030054 129.856867 147.030054 0.243525529"></polygon>
    </defs>
    <g id="vertical_lockup" stroke="none" stroke-width="1" fill="none" fill-rule="evenodd">
        <g id="horizontal_lockup">
            <g id="Group" transform="translate(4.000000, 3.000000)">
                <g id="Page-1">
                    <g id="Group-3" transform="translate(0.000000, 0.203894)">
                        <mask id="mask-2" fill="white">
                            <use xlink:href="#path-1"></use>
                        </mask>
                        <g id="Clip-2"></g>
                        <path d="M144.143874,59.6445473 C136.529707,47.1850017 131.163707,45.6127434 126.430526,44.2256745 C122.407877,43.0460177 118.93293,42.0274758 112.245785,30.8216627 C107.351624,22.6251781 100.958683,15.0435224 94.2400823,9.47487586 C85.3010679,2.06359443 78.8230117,0.508003127 74.963193,0.508003127 C72.3394045,0.508003127 70.0283241,1.20246353 68.0965644,2.57286539 L65.0453463,4.73772996 C63.8925817,4.4580939 63.0377225,4.39512949 62.3678978,4.3932776 C60.7136898,4.3932776 59.2963259,4.85254741 58.1565136,5.75997567 C56.6503332,6.95815136 55.908345,8.82115713 56.1211346,10.8730561 C56.3653801,13.2212583 57.8678599,15.9824328 60.8469146,19.5639966 C61.8905089,20.819581 63.115437,22.1622045 64.4717395,23.5548291 C61.4242221,23.0177797 58.2897384,22.7362917 55.0886424,22.7362917 C38.0210644,22.7362917 22.8130828,30.6975858 12.9655492,43.110834 C12.5732761,43.0737961 12.1791527,43.0497215 11.7850293,43.0497215 C7.63840726,43.0497215 3.98952784,45.0682864 1.77466544,48.5887377 C-0.0312708226,51.4573221 -0.477203854,54.8388813 0.520131848,58.1093269 C1.05303107,59.8519595 1.96525093,61.4501444 3.11431488,62.7483224 C1.95229851,67.1502754 1.32873241,71.7726038 1.32873241,76.5412319 C1.32873241,106.25673 25.3980141,130.34432 55.0886424,130.34432 C75.3573164,130.34432 93.0022018,119.118136 102.163258,102.539978 C103.101382,102.649239 104.021004,102.717759 104.903618,102.717759 C107.497801,102.717759 109.708963,102.247378 111.476042,101.323283 C113.890741,100.058439 115.38582,97.9157972 115.581956,95.4453701 C115.791045,92.8119762 114.656784,90.4841449 112.388261,88.8952195 C111.065265,87.9674204 109.516527,87.3711104 107.873421,86.7710966 C108.102864,85.5803285 108.293449,84.3765972 108.443327,83.1599025 C112.384561,84.554379 116.283237,84.8543859 120.041286,84.8543859 C121.713998,84.8543859 123.523635,84.7914215 125.906879,84.6469737 C138.792678,83.8691781 143.895928,79.1061057 145.907253,75.2449058 C147.539257,72.1152043 148.558796,66.8669355 144.143874,59.6445473" id="Fill-1" fill="#51AF33" mask="url(#mask-2)"></path>
                    </g>
                    <path d="M127.942813,62.1764574 C125.981448,62.1764574 124.107048,60.5838282 123.762884,58.6189682 C123.41687,56.6541082 124.726914,55.0596271 126.69198,55.0596271 C128.655195,55.0596271 130.529594,56.6541082 130.875609,58.6189682 C131.219773,60.5838282 129.909729,62.1764574 127.942813,62.1764574 M140.910027,61.9968236 C127.761479,39.8833525 123.059753,55.8189038 108.908319,33.0628253 C97.4583866,14.653143 80.1410121,1.54543438 71.6867879,5.36218875 C71.2334535,5.56589714 71.2427053,6.21591208 71.703441,6.40480531 C80.0725494,9.84006944 98.1652182,24.7755979 105.812692,39.8463146 C106.005128,40.224101 105.492583,40.5537382 105.229834,40.2222491 C95.6061917,28.0738218 65.8989102,4.99921745 60.7975104,9.05486621 C56.5898269,12.3993875 78.9364378,33.6183937 97.1197735,42.9852756 C97.536101,43.2000953 97.7044824,43.7130701 97.4805907,44.1223388 C96.644235,45.6408922 94.6329105,47.7205696 89.0818769,47.6872355 C79.4804391,47.6279749 70.1695054,33.4813535 49.5233612,33.2072731 C36.9114128,33.0406026 24.7972072,38.3203536 16.224561,48.1835432 C16.0950369,48.3335466 15.8785466,48.3668807 15.7083149,48.2650265 C13.5378607,46.9853675 8.06269126,46.4038727 5.19650758,50.957681 C2.55236525,55.1614813 4.98001727,59.8541818 7.60010512,61.463478 C7.9146637,61.6579269 8.05158919,62.043121 7.93686783,62.3949809 C6.48804806,66.813601 5.66834543,71.6988984 5.59433165,77.0397619 C5.2927255,98.9013754 23.4797619,119.86482 48.8757406,120.096307 C59.2265679,120.190754 66.1709109,117.038829 71.9032783,113.570231 C78.5552668,109.546064 83.4253736,104.270017 82.165289,100.434744 C80.3352983,94.856838 72.2955513,96.6142858 64.1355319,99.8680643 C63.6396396,100.064365 63.2473665,99.399535 63.6174354,99.014341 C67.9287382,94.523497 70.5821323,88.4270606 70.5821323,81.7065358 C70.5821323,67.900663 59.3986499,56.7096651 45.6061818,56.7096651 C34.6262373,56.7096651 25.5725016,62.4190555 22.3140448,71.811864 C22.2307793,72.1359455 21.8995677,72.3322463 21.5757574,72.2507629 C21.2519471,72.1674277 21.0558106,71.8377905 21.1390761,71.513709 C23.657395,59.7393643 33.8194871,50.9780519 46.2149451,50.3132218 C61.7596895,49.4798693 74.9655984,62.0134906 74.8823329,77.5916264 C74.8564281,82.6713728 73.4335132,87.4177782 70.983657,91.4734269 C70.5617785,92.1715911 71.3352225,92.9827209 72.0494555,92.5864155 C75.0451633,90.9271181 77.696707,88.7215118 79.8690115,86.1029331 C80.0096376,85.9325588 80.2668355,85.9270032 80.4148631,86.0899699 C93.9297795,100.877347 111.2268,101.162538 111.681985,95.4049988 C112.200081,88.858552 95.4914703,93.1086497 94.4460257,76.8767952 C94.4238215,76.5545656 94.8031422,76.3619685 95.049238,76.5712326 C96.5720715,77.8675587 98.464974,77.2008767 98.8813015,76.9897607 C99.8083241,76.5156758 100.676136,75.4675035 100.798258,74.2248824 C100.827864,73.9248755 101.186831,73.7896872 101.403321,73.9989513 C108.612263,81.0324462 115.937777,81.3657872 125.901883,80.7787367 C140.177291,79.9398285 146.820028,71.9359409 140.910027,61.9968236" id="Fill-4" fill="#FFFFFF"></path>
                </g>
                <g id="Page-1">
                    <path d="M453.963049,92.2094234 C463.867032,92.2094234 467.199574,83.8194312 467.199574,78.6733242 C467.199574,72.2866379 462.820449,65.2346335 453.867571,65.2346335 C444.817379,65.2346335 440.820166,72.8582234 440.820166,78.8644653 C440.820166,83.8194312 444.440977,92.2094234 453.963049,92.2094234 L453.963049,92.2094234 Z M483.017671,105.243777 L472.913552,105.243777 C467.199574,105.243777 467.199574,99.5701942 467.199574,99.5701942 L467.010454,99.5701942 C464.338913,104.729166 457.772979,107.043077 451.579777,107.043077 C434.817918,107.043077 425.009413,93.8598534 425.009413,78.7027305 C425.011249,61.3548364 437.485788,50.4138455 451.579777,50.4138455 C460.248057,50.4138455 465.104571,54.6887901 467.010454,57.7838058 L467.199574,57.7838058 C467.199574,57.7838058 467.199574,52.1102229 472.818074,52.1102229 L483.017671,52.1102229 L483.017671,105.243777 Z" id="Fill-1" fill="#51AF33"></path>
                    <path d="M518.019457,92.2094234 C526.114871,92.2094234 531.257818,85.631596 531.257818,78.6733242 C531.257818,71.8087851 526.114871,65.2346335 518.305891,65.2346335 C509.925879,65.2346335 505.161171,71.9999262 505.164843,78.5777537 C505.164843,85.9183076 510.114999,92.2094234 518.019457,92.2094234 M500.989527,34.5693498 L505.693643,34.5693498 L505.693643,56.4641969 C511.363554,50.4542792 518.854888,50.4542792 521.049041,50.4542792 C532.095085,50.4542792 547.055718,58.3645807 547.055718,78.3866125 C547.055718,97.4511009 533.826538,106.995291 520.397221,106.995291 C512.968316,106.995291 507.256174,103.181659 505.258485,99.5701942 L505.179532,99.5701942 L505.179532,105.243777 L489.717641,105.243777 L489.717641,45.7069955 C489.717641,34.6300003 500.989527,34.5693498 500.989527,34.5693498" id="Fill-3" fill="#51AF33"></path>
                    <path d="M579.362277,92.2094234 C587.457691,92.2094234 592.600638,85.631596 592.600638,78.6733242 C592.600638,71.8087851 587.457691,65.2346335 579.64871,65.2346335 C571.266863,65.2346335 566.505827,71.9999262 566.505827,78.5777537 C566.505827,85.9183076 571.457819,92.2094234 579.362277,92.2094234 M562.337855,34.5693498 L567.02361,34.5693498 L567.02361,56.4641969 C572.693521,50.4542792 580.194035,50.4542792 582.380844,50.4542792 C593.43056,50.4542792 608.398538,58.3645807 608.398538,78.3866125 C608.398538,97.4511009 595.165685,106.995291 581.738205,106.995291 C574.311135,106.995291 568.602666,103.181659 566.601305,99.5701942 L566.507663,99.5701942 L566.507663,105.243777 L551.047608,105.243777 L551.047608,45.7069955 C551.047608,34.6300003 562.337855,34.5693498 562.337855,34.5693498" id="Fill-5" fill="#51AF33"></path>
                    <path d="M628.35321,105.244512 L612.891318,105.244512 L612.891318,63.3423365 C612.891318,52.2616655 623.801491,52.1091202 623.801491,52.1091202 L628.35321,52.1091202 L628.35321,105.244512 Z" id="Fill-7" fill="#51AF33"></path>
                    <path d="M628.925159,40.9514413 C628.925159,45.5296386 625.216214,49.245863 620.638789,49.245863 C616.065036,49.245863 612.354256,45.5296386 612.354256,40.9514413 C612.354256,36.3695683 616.065036,32.6570197 620.638789,32.6570197 C625.216214,32.6570197 628.925159,36.3695683 628.925159,40.9514413" id="Fill-9" fill="#51AF33"></path>
                    <path d="M395.390003,70.1651553 L389.220669,70.1651553 L389.220669,50.5621636 L395.580958,50.5621636 C402.530639,50.5621636 407.196197,53.6902615 407.196197,60.0769478 C407.196197,63.5119742 405.960494,70.1651553 395.390003,70.1651553 L395.390003,70.1651553 Z M417.779542,89.2516984 C413.826394,89.2516984 411.028161,86.1144111 410.783958,85.8405647 L408.288683,82.6352752 L408.288683,82.6371131 L407.008914,81.1520937 C420.342753,78.9576466 424.485019,67.0425711 424.485019,58.9392906 C424.485019,51.6943072 421.604161,44.2287763 415.792869,39.6542548 C411.222789,36.1254958 406.437883,34.5706363 394.058822,34.5706363 L371.696825,34.5706363 L371.696825,105.245064 L389.005844,105.245064 L389.009517,84.0945641 L395.733356,92.5176384 L398.382864,95.8681216 C399.14485,96.8256651 406.167975,105.245064 417.779542,105.245064 L424.780633,105.245064 L424.780633,89.2516984 L417.779542,89.2516984 Z" id="Fill-11" fill="#51AF33"></path>
                    <path d="M658.619666,89.2524336 C658.366282,89.2524336 655.937107,89.1623767 653.814563,87.9953132 C652.198785,87.1002581 650.515071,85.6575103 650.515071,81.3697005 L650.515071,75.3230248 L650.515071,64.4904697 L660.821163,64.4904697 L660.821163,52.1085688 L650.515071,52.1085688 L650.515071,34.5695336 L645.834824,34.5695336 C645.834824,34.5695336 634.537232,34.6301841 634.537232,45.7071793 L634.537232,74.2680729 L634.537232,77.6865582 L634.537232,81.3697005 C634.537232,98.833382 648.987427,105.243961 658.546221,105.243961 L660.821163,105.243961 L660.821163,89.2524336 L658.619666,89.2524336 Z" id="Fill-13" fill="#51AF33"></path>
                    <path d="M181.524554,50.5619799 L165.548552,50.5619799 L165.548552,45.7080983 C165.548552,34.6311031 176.388952,34.5704525 176.388952,34.5704525 L215.024402,34.5704525 L215.024402,50.5619799 L199.56251,50.5619799 L199.56251,105.24488 L192.833163,105.24488 C181.765085,105.24488 181.524554,94.0943688 181.524554,94.0943688 L181.524554,50.5619799 Z" id="Fill-15" fill="#254F17"></path>
                    <path d="M234.420345,92.2094234 C244.328001,92.2094234 247.658706,83.8194312 247.658706,78.6733242 C247.658706,72.2866379 243.277745,65.2346335 234.328539,65.2346335 C225.278348,65.2346335 221.281134,72.8582234 221.277462,78.8644653 C221.281134,83.8194312 224.898273,92.2094234 234.420345,92.2094234 L234.420345,92.2094234 Z M263.469459,105.243777 L253.37452,105.243777 C247.658706,105.243777 247.658706,99.5701942 247.658706,99.5701942 L247.469587,99.5701942 C244.799881,104.729166 238.228439,107.043077 232.038909,107.043077 C215.278887,107.043077 205.468545,93.8598534 205.468545,78.7027305 C205.468545,61.3548364 217.946756,50.4138455 232.038909,50.4138455 C240.709026,50.4138455 245.565539,54.6887901 247.469587,57.7838058 L247.658706,57.7838058 C247.658706,57.7838058 247.658706,52.1102229 253.279042,52.1102229 L263.469459,52.1102229 L263.469459,105.243777 Z" id="Fill-17" fill="#254F17"></path>
                    <path d="M293.403762,67.069772 C293.308284,66.0387127 293.117329,63.0999181 288.45177,63.0999181 C285.117393,63.0999181 283.975331,65.2171735 283.975331,66.6433803 C283.975331,69.5031454 287.877068,71.1333586 292.070745,72.3739379 C301.019951,74.8532588 310.547531,77.5237207 310.547531,88.9646192 C310.547531,100.116968 300.73719,106.887774 289.022801,106.887774 C281.022865,106.887774 268.926565,103.18074 267.499906,89.2531687 L283.211509,89.2531687 C283.879854,94.410303 288.547248,94.2099725 289.21192,94.2099725 C291.877954,94.2099725 294.736779,92.7323046 294.736779,90.1574132 C294.736779,86.0589066 290.829534,85.6067844 280.736431,81.6994189 C273.880393,79.5086476 268.168251,75.0370483 268.164579,67.8876354 C268.164579,57.4024425 277.690323,50.4129265 288.64089,50.4129265 C295.592406,50.4129265 307.595065,53.1403632 308.928081,67.069772 L293.403762,67.069772 Z" id="Fill-19" fill="#254F17"></path>
                    <path d="M314.490947,91.1070538 L314.490947,105.244145 L330.46695,105.244145 L330.46695,91.3165738 L330.46695,79.9675701 L330.527542,79.9675701 C330.527542,79.9675701 332.725367,83.2114554 338.911225,92.6949953 C347.039689,105.166953 363.160744,105.244145 363.840106,105.244145 L367.574756,105.244145 L367.574756,91.3165738 L363.840106,91.3165738 C363.744628,91.3165738 354.314361,91.1530011 350.293278,84.9850244 C347.533603,80.7468377 345.859069,78.2399485 344.847372,76.6961164 C344.515036,76.1796678 344.252472,75.7312214 344.052336,75.420617 L363.955781,52.1087526 L345.192561,52.1087526 L330.527542,71.1971336 L330.336586,71.1971336 L330.340258,45.5621694 C330.340258,34.4851742 319.270344,34.5697174 319.270344,34.5697174 L314.490947,34.5697174 L314.490947,91.1070538 Z" id="Fill-21" fill="#254F17"></path>
                    <g id="Group-25" transform="translate(0.000000, 0.328253)">
                        <mask id="mask-4" fill="white">
                            <use xlink:href="#path-3"></use>
                        </mask>
                        <g id="Clip-24"></g>
                        <path d="M143.877667,59.2780103 C136.278003,46.8409726 130.922067,45.269572 126.195917,43.8856369 C122.180342,42.7075459 118.713764,41.6911898 112.037664,30.5039209 C107.153608,22.3216109 100.771286,14.7531579 94.0658083,9.19352446 C85.1423083,1.79599572 78.6773611,0.242974161 74.8252,0.242974161 C72.2050694,0.242974161 69.8989139,0.935860703 67.9709972,2.30325483 L64.9248889,4.46461975 C63.7736472,4.18525966 62.9198556,4.12277122 62.2533472,4.12277122 C60.6008472,4.12277122 59.1870417,4.58040716 58.0504889,5.48465166 C56.5448778,6.68112153 55.804925,8.54290951 56.0179139,10.5903249 C56.2621167,12.9354794 57.7603833,15.6923224 60.7330472,19.2670288 C61.7759583,20.5186355 62.9988083,21.8584612 64.3520222,23.249748 C61.3114222,22.7130826 58.1808528,22.4318846 54.9860194,22.4318846 C37.9505806,22.4318846 22.77145,30.3807819 12.9409111,42.7737102 C12.5498194,42.7351144 12.1568917,42.7112217 11.7621278,42.7112217 C7.62353333,42.7112217 3.98068889,44.7273929 1.77001111,48.2414488 C-0.0312138889,51.1048897 -0.475552778,54.4811035 0.519619444,57.7452056 C1.05025556,59.4838546 1.96096667,61.0809856 3.10853611,62.3767019 C1.94811389,66.7711096 1.32567222,71.3842269 1.32567222,76.1443758 C1.32567222,105.809844 25.3511861,129.856867 54.9860194,129.856867 C75.2181278,129.856867 92.8301056,118.649381 101.973939,102.099134 C102.910356,102.209408 103.828411,102.27741 104.709744,102.27741 C107.298661,102.27741 109.507503,101.808746 111.270169,100.884285 C113.679147,99.6234888 115.173742,97.4841786 115.368369,95.0177231 C115.57585,92.3876948 114.444806,90.0645951 112.180881,88.4784914 C110.858881,87.5521922 109.312875,86.9567141 107.673228,86.3575602 C107.902742,85.1702798 108.093697,83.9682963 108.242422,82.7534475 C112.177208,84.1465721 116.067928,84.4461491 119.820939,84.4461491 C121.489964,84.4461491 123.294861,84.3818227 125.674461,84.2384669 C138.536419,83.4628751 143.629792,78.7064019 145.638497,74.8523354 C147.267128,71.7279133 148.284333,66.4880737 143.877667,59.2780103" id="Fill-23" fill="#51AF33" mask="url(#mask-4)"></path>
                    </g>
                </g>
            </g>
        </g>
    </g>
</svg>